%TF.GenerationSoftware,KiCad,Pcbnew,6.0.7-f9a2dced07~116~ubuntu20.04.1*%
%TF.CreationDate,2022-09-15T22:40:30+02:00*%
%TF.ProjectId,pylot_shield,70796c6f-745f-4736-9869-656c642e6b69,rev?*%
%TF.SameCoordinates,Original*%
%TF.FileFunction,Drillmap*%
%TF.FilePolarity,Positive*%
%FSLAX45Y45*%
G04 Gerber Fmt 4.5, Leading zero omitted, Abs format (unit mm)*
G04 Created by KiCad (PCBNEW 6.0.7-f9a2dced07~116~ubuntu20.04.1) date 2022-09-15 22:40:30*
%MOMM*%
%LPD*%
G01*
G04 APERTURE LIST*
%ADD10C,0.200000*%
%ADD11C,0.275000*%
G04 APERTURE END LIST*
D10*
D11*
X7873500Y-2961500D02*
X8148500Y-3236500D01*
X8148500Y-2961500D02*
X7873500Y-3236500D01*
X7873500Y-8761500D02*
X8148500Y-9036500D01*
X8148500Y-8761500D02*
X7873500Y-9036500D01*
X10173500Y-2961500D02*
X10448500Y-3236500D01*
X10448500Y-2961500D02*
X10173500Y-3236500D01*
X10173500Y-8761500D02*
X10448500Y-9036500D01*
X10448500Y-8761500D02*
X10173500Y-9036500D01*
D10*
X7912269Y-9565826D02*
X7912269Y-9365826D01*
X7959888Y-9365826D01*
X7988459Y-9375350D01*
X8007507Y-9394398D01*
X8017031Y-9413445D01*
X8026555Y-9451540D01*
X8026555Y-9480112D01*
X8017031Y-9518207D01*
X8007507Y-9537255D01*
X7988459Y-9556302D01*
X7959888Y-9565826D01*
X7912269Y-9565826D01*
X8112269Y-9565826D02*
X8112269Y-9432493D01*
X8112269Y-9470588D02*
X8121793Y-9451540D01*
X8131317Y-9442017D01*
X8150364Y-9432493D01*
X8169412Y-9432493D01*
X8236078Y-9565826D02*
X8236078Y-9432493D01*
X8236078Y-9365826D02*
X8226555Y-9375350D01*
X8236078Y-9384874D01*
X8245602Y-9375350D01*
X8236078Y-9365826D01*
X8236078Y-9384874D01*
X8359888Y-9565826D02*
X8340840Y-9556302D01*
X8331317Y-9537255D01*
X8331317Y-9365826D01*
X8464650Y-9565826D02*
X8445602Y-9556302D01*
X8436079Y-9537255D01*
X8436079Y-9365826D01*
X8693221Y-9565826D02*
X8693221Y-9365826D01*
X8759888Y-9508683D01*
X8826555Y-9365826D01*
X8826555Y-9565826D01*
X9007507Y-9565826D02*
X9007507Y-9461064D01*
X8997983Y-9442017D01*
X8978936Y-9432493D01*
X8940840Y-9432493D01*
X8921793Y-9442017D01*
X9007507Y-9556302D02*
X8988460Y-9565826D01*
X8940840Y-9565826D01*
X8921793Y-9556302D01*
X8912269Y-9537255D01*
X8912269Y-9518207D01*
X8921793Y-9499160D01*
X8940840Y-9489636D01*
X8988460Y-9489636D01*
X9007507Y-9480112D01*
X9102745Y-9432493D02*
X9102745Y-9632493D01*
X9102745Y-9442017D02*
X9121793Y-9432493D01*
X9159888Y-9432493D01*
X9178936Y-9442017D01*
X9188460Y-9451540D01*
X9197983Y-9470588D01*
X9197983Y-9527731D01*
X9188460Y-9546779D01*
X9178936Y-9556302D01*
X9159888Y-9565826D01*
X9121793Y-9565826D01*
X9102745Y-9556302D01*
X9283698Y-9546779D02*
X9293221Y-9556302D01*
X9283698Y-9565826D01*
X9274174Y-9556302D01*
X9283698Y-9546779D01*
X9283698Y-9565826D01*
X9283698Y-9442017D02*
X9293221Y-9451540D01*
X9283698Y-9461064D01*
X9274174Y-9451540D01*
X9283698Y-9442017D01*
X9283698Y-9461064D01*
X7454650Y-9795350D02*
X7654650Y-9995350D01*
X7654650Y-9795350D02*
X7454650Y-9995350D01*
X7902745Y-9804874D02*
X7912269Y-9795350D01*
X7931317Y-9785826D01*
X7978936Y-9785826D01*
X7997983Y-9795350D01*
X8007507Y-9804874D01*
X8017031Y-9823921D01*
X8017031Y-9842969D01*
X8007507Y-9871540D01*
X7893221Y-9985826D01*
X8017031Y-9985826D01*
X8102745Y-9966779D02*
X8112269Y-9976302D01*
X8102745Y-9985826D01*
X8093221Y-9976302D01*
X8102745Y-9966779D01*
X8102745Y-9985826D01*
X8178936Y-9785826D02*
X8312269Y-9785826D01*
X8226555Y-9985826D01*
X8483698Y-9785826D02*
X8388459Y-9785826D01*
X8378936Y-9881064D01*
X8388459Y-9871540D01*
X8407507Y-9862017D01*
X8455126Y-9862017D01*
X8474174Y-9871540D01*
X8483698Y-9881064D01*
X8493221Y-9900112D01*
X8493221Y-9947731D01*
X8483698Y-9966779D01*
X8474174Y-9976302D01*
X8455126Y-9985826D01*
X8407507Y-9985826D01*
X8388459Y-9976302D01*
X8378936Y-9966779D01*
X8617031Y-9785826D02*
X8636079Y-9785826D01*
X8655126Y-9795350D01*
X8664650Y-9804874D01*
X8674174Y-9823921D01*
X8683698Y-9862017D01*
X8683698Y-9909636D01*
X8674174Y-9947731D01*
X8664650Y-9966779D01*
X8655126Y-9976302D01*
X8636079Y-9985826D01*
X8617031Y-9985826D01*
X8597983Y-9976302D01*
X8588460Y-9966779D01*
X8578936Y-9947731D01*
X8569412Y-9909636D01*
X8569412Y-9862017D01*
X8578936Y-9823921D01*
X8588460Y-9804874D01*
X8597983Y-9795350D01*
X8617031Y-9785826D01*
X8769412Y-9985826D02*
X8769412Y-9852493D01*
X8769412Y-9871540D02*
X8778936Y-9862017D01*
X8797983Y-9852493D01*
X8826555Y-9852493D01*
X8845602Y-9862017D01*
X8855126Y-9881064D01*
X8855126Y-9985826D01*
X8855126Y-9881064D02*
X8864650Y-9862017D01*
X8883698Y-9852493D01*
X8912269Y-9852493D01*
X8931317Y-9862017D01*
X8940840Y-9881064D01*
X8940840Y-9985826D01*
X9036079Y-9985826D02*
X9036079Y-9852493D01*
X9036079Y-9871540D02*
X9045602Y-9862017D01*
X9064650Y-9852493D01*
X9093221Y-9852493D01*
X9112269Y-9862017D01*
X9121793Y-9881064D01*
X9121793Y-9985826D01*
X9121793Y-9881064D02*
X9131317Y-9862017D01*
X9150364Y-9852493D01*
X9178936Y-9852493D01*
X9197983Y-9862017D01*
X9207507Y-9881064D01*
X9207507Y-9985826D01*
X9597983Y-9776302D02*
X9426555Y-10033445D01*
X9855126Y-9785826D02*
X9874174Y-9785826D01*
X9893221Y-9795350D01*
X9902745Y-9804874D01*
X9912269Y-9823921D01*
X9921793Y-9862017D01*
X9921793Y-9909636D01*
X9912269Y-9947731D01*
X9902745Y-9966779D01*
X9893221Y-9976302D01*
X9874174Y-9985826D01*
X9855126Y-9985826D01*
X9836079Y-9976302D01*
X9826555Y-9966779D01*
X9817031Y-9947731D01*
X9807507Y-9909636D01*
X9807507Y-9862017D01*
X9817031Y-9823921D01*
X9826555Y-9804874D01*
X9836079Y-9795350D01*
X9855126Y-9785826D01*
X10007507Y-9966779D02*
X10017031Y-9976302D01*
X10007507Y-9985826D01*
X9997983Y-9976302D01*
X10007507Y-9966779D01*
X10007507Y-9985826D01*
X10207507Y-9985826D02*
X10093221Y-9985826D01*
X10150364Y-9985826D02*
X10150364Y-9785826D01*
X10131317Y-9814398D01*
X10112269Y-9833445D01*
X10093221Y-9842969D01*
X10331317Y-9785826D02*
X10350364Y-9785826D01*
X10369412Y-9795350D01*
X10378936Y-9804874D01*
X10388460Y-9823921D01*
X10397983Y-9862017D01*
X10397983Y-9909636D01*
X10388460Y-9947731D01*
X10378936Y-9966779D01*
X10369412Y-9976302D01*
X10350364Y-9985826D01*
X10331317Y-9985826D01*
X10312269Y-9976302D01*
X10302745Y-9966779D01*
X10293221Y-9947731D01*
X10283698Y-9909636D01*
X10283698Y-9862017D01*
X10293221Y-9823921D01*
X10302745Y-9804874D01*
X10312269Y-9795350D01*
X10331317Y-9785826D01*
X10512269Y-9871540D02*
X10493221Y-9862017D01*
X10483698Y-9852493D01*
X10474174Y-9833445D01*
X10474174Y-9823921D01*
X10483698Y-9804874D01*
X10493221Y-9795350D01*
X10512269Y-9785826D01*
X10550364Y-9785826D01*
X10569412Y-9795350D01*
X10578936Y-9804874D01*
X10588460Y-9823921D01*
X10588460Y-9833445D01*
X10578936Y-9852493D01*
X10569412Y-9862017D01*
X10550364Y-9871540D01*
X10512269Y-9871540D01*
X10493221Y-9881064D01*
X10483698Y-9890588D01*
X10474174Y-9909636D01*
X10474174Y-9947731D01*
X10483698Y-9966779D01*
X10493221Y-9976302D01*
X10512269Y-9985826D01*
X10550364Y-9985826D01*
X10569412Y-9976302D01*
X10578936Y-9966779D01*
X10588460Y-9947731D01*
X10588460Y-9909636D01*
X10578936Y-9890588D01*
X10569412Y-9881064D01*
X10550364Y-9871540D01*
X10655126Y-9785826D02*
X10778936Y-9785826D01*
X10712269Y-9862017D01*
X10740840Y-9862017D01*
X10759888Y-9871540D01*
X10769412Y-9881064D01*
X10778936Y-9900112D01*
X10778936Y-9947731D01*
X10769412Y-9966779D01*
X10759888Y-9976302D01*
X10740840Y-9985826D01*
X10683698Y-9985826D01*
X10664650Y-9976302D01*
X10655126Y-9966779D01*
X10855126Y-9785826D02*
X10855126Y-9823921D01*
X10931317Y-9785826D02*
X10931317Y-9823921D01*
X11226555Y-10062017D02*
X11217031Y-10052493D01*
X11197983Y-10023921D01*
X11188459Y-10004874D01*
X11178936Y-9976302D01*
X11169412Y-9928683D01*
X11169412Y-9890588D01*
X11178936Y-9842969D01*
X11188459Y-9814398D01*
X11197983Y-9795350D01*
X11217031Y-9766779D01*
X11226555Y-9757255D01*
X11388459Y-9852493D02*
X11388459Y-9985826D01*
X11340840Y-9776302D02*
X11293221Y-9919160D01*
X11417031Y-9919160D01*
X11645602Y-9985826D02*
X11645602Y-9785826D01*
X11731317Y-9985826D02*
X11731317Y-9881064D01*
X11721793Y-9862017D01*
X11702745Y-9852493D01*
X11674174Y-9852493D01*
X11655126Y-9862017D01*
X11645602Y-9871540D01*
X11855126Y-9985826D02*
X11836078Y-9976302D01*
X11826555Y-9966779D01*
X11817031Y-9947731D01*
X11817031Y-9890588D01*
X11826555Y-9871540D01*
X11836078Y-9862017D01*
X11855126Y-9852493D01*
X11883698Y-9852493D01*
X11902745Y-9862017D01*
X11912269Y-9871540D01*
X11921793Y-9890588D01*
X11921793Y-9947731D01*
X11912269Y-9966779D01*
X11902745Y-9976302D01*
X11883698Y-9985826D01*
X11855126Y-9985826D01*
X12036078Y-9985826D02*
X12017031Y-9976302D01*
X12007507Y-9957255D01*
X12007507Y-9785826D01*
X12188459Y-9976302D02*
X12169412Y-9985826D01*
X12131317Y-9985826D01*
X12112269Y-9976302D01*
X12102745Y-9957255D01*
X12102745Y-9881064D01*
X12112269Y-9862017D01*
X12131317Y-9852493D01*
X12169412Y-9852493D01*
X12188459Y-9862017D01*
X12197983Y-9881064D01*
X12197983Y-9900112D01*
X12102745Y-9919160D01*
X12274174Y-9976302D02*
X12293221Y-9985826D01*
X12331317Y-9985826D01*
X12350364Y-9976302D01*
X12359888Y-9957255D01*
X12359888Y-9947731D01*
X12350364Y-9928683D01*
X12331317Y-9919160D01*
X12302745Y-9919160D01*
X12283698Y-9909636D01*
X12274174Y-9890588D01*
X12274174Y-9881064D01*
X12283698Y-9862017D01*
X12302745Y-9852493D01*
X12331317Y-9852493D01*
X12350364Y-9862017D01*
X12426555Y-10062017D02*
X12436078Y-10052493D01*
X12455126Y-10023921D01*
X12464650Y-10004874D01*
X12474174Y-9976302D01*
X12483698Y-9928683D01*
X12483698Y-9890588D01*
X12474174Y-9842969D01*
X12464650Y-9814398D01*
X12455126Y-9795350D01*
X12436078Y-9766779D01*
X12426555Y-9757255D01*
X12788459Y-10062017D02*
X12778936Y-10052493D01*
X12759888Y-10023921D01*
X12750364Y-10004874D01*
X12740840Y-9976302D01*
X12731317Y-9928683D01*
X12731317Y-9890588D01*
X12740840Y-9842969D01*
X12750364Y-9814398D01*
X12759888Y-9795350D01*
X12778936Y-9766779D01*
X12788459Y-9757255D01*
X12864650Y-9852493D02*
X12864650Y-9985826D01*
X12864650Y-9871540D02*
X12874174Y-9862017D01*
X12893221Y-9852493D01*
X12921793Y-9852493D01*
X12940840Y-9862017D01*
X12950364Y-9881064D01*
X12950364Y-9985826D01*
X13074174Y-9985826D02*
X13055126Y-9976302D01*
X13045602Y-9966779D01*
X13036078Y-9947731D01*
X13036078Y-9890588D01*
X13045602Y-9871540D01*
X13055126Y-9862017D01*
X13074174Y-9852493D01*
X13102745Y-9852493D01*
X13121793Y-9862017D01*
X13131317Y-9871540D01*
X13140840Y-9890588D01*
X13140840Y-9947731D01*
X13131317Y-9966779D01*
X13121793Y-9976302D01*
X13102745Y-9985826D01*
X13074174Y-9985826D01*
X13197983Y-9852493D02*
X13274174Y-9852493D01*
X13226555Y-9785826D02*
X13226555Y-9957255D01*
X13236078Y-9976302D01*
X13255126Y-9985826D01*
X13274174Y-9985826D01*
X13493221Y-9852493D02*
X13493221Y-10052493D01*
X13493221Y-9862017D02*
X13512269Y-9852493D01*
X13550364Y-9852493D01*
X13569412Y-9862017D01*
X13578936Y-9871540D01*
X13588459Y-9890588D01*
X13588459Y-9947731D01*
X13578936Y-9966779D01*
X13569412Y-9976302D01*
X13550364Y-9985826D01*
X13512269Y-9985826D01*
X13493221Y-9976302D01*
X13702745Y-9985826D02*
X13683698Y-9976302D01*
X13674174Y-9957255D01*
X13674174Y-9785826D01*
X13864650Y-9985826D02*
X13864650Y-9881064D01*
X13855126Y-9862017D01*
X13836078Y-9852493D01*
X13797983Y-9852493D01*
X13778936Y-9862017D01*
X13864650Y-9976302D02*
X13845602Y-9985826D01*
X13797983Y-9985826D01*
X13778936Y-9976302D01*
X13769412Y-9957255D01*
X13769412Y-9938207D01*
X13778936Y-9919160D01*
X13797983Y-9909636D01*
X13845602Y-9909636D01*
X13864650Y-9900112D01*
X13931317Y-9852493D02*
X14007507Y-9852493D01*
X13959888Y-9785826D02*
X13959888Y-9957255D01*
X13969412Y-9976302D01*
X13988459Y-9985826D01*
X14007507Y-9985826D01*
X14150364Y-9976302D02*
X14131317Y-9985826D01*
X14093221Y-9985826D01*
X14074174Y-9976302D01*
X14064650Y-9957255D01*
X14064650Y-9881064D01*
X14074174Y-9862017D01*
X14093221Y-9852493D01*
X14131317Y-9852493D01*
X14150364Y-9862017D01*
X14159888Y-9881064D01*
X14159888Y-9900112D01*
X14064650Y-9919160D01*
X14331317Y-9985826D02*
X14331317Y-9785826D01*
X14331317Y-9976302D02*
X14312269Y-9985826D01*
X14274174Y-9985826D01*
X14255126Y-9976302D01*
X14245602Y-9966779D01*
X14236078Y-9947731D01*
X14236078Y-9890588D01*
X14245602Y-9871540D01*
X14255126Y-9862017D01*
X14274174Y-9852493D01*
X14312269Y-9852493D01*
X14331317Y-9862017D01*
X14407507Y-10062017D02*
X14417031Y-10052493D01*
X14436078Y-10023921D01*
X14445602Y-10004874D01*
X14455126Y-9976302D01*
X14464650Y-9928683D01*
X14464650Y-9890588D01*
X14455126Y-9842969D01*
X14445602Y-9814398D01*
X14436078Y-9795350D01*
X14417031Y-9766779D01*
X14407507Y-9757255D01*
M02*
