%TF.GenerationSoftware,KiCad,Pcbnew,6.0.7-f9a2dced07~116~ubuntu20.04.1*%
%TF.CreationDate,2022-09-21T16:42:24+02:00*%
%TF.ProjectId,pylot_shield,70796c6f-745f-4736-9869-656c642e6b69,rev?*%
%TF.SameCoordinates,Original*%
%TF.FileFunction,Paste,Top*%
%TF.FilePolarity,Positive*%
%FSLAX46Y46*%
G04 Gerber Fmt 4.6, Leading zero omitted, Abs format (unit mm)*
G04 Created by KiCad (PCBNEW 6.0.7-f9a2dced07~116~ubuntu20.04.1) date 2022-09-21 16:42:24*
%MOMM*%
%LPD*%
G01*
G04 APERTURE LIST*
G04 Aperture macros list*
%AMRoundRect*
0 Rectangle with rounded corners*
0 $1 Rounding radius*
0 $2 $3 $4 $5 $6 $7 $8 $9 X,Y pos of 4 corners*
0 Add a 4 corners polygon primitive as box body*
4,1,4,$2,$3,$4,$5,$6,$7,$8,$9,$2,$3,0*
0 Add four circle primitives for the rounded corners*
1,1,$1+$1,$2,$3*
1,1,$1+$1,$4,$5*
1,1,$1+$1,$6,$7*
1,1,$1+$1,$8,$9*
0 Add four rect primitives between the rounded corners*
20,1,$1+$1,$2,$3,$4,$5,0*
20,1,$1+$1,$4,$5,$6,$7,0*
20,1,$1+$1,$6,$7,$8,$9,0*
20,1,$1+$1,$8,$9,$2,$3,0*%
G04 Aperture macros list end*
%ADD10RoundRect,0.225000X-0.225000X-0.250000X0.225000X-0.250000X0.225000X0.250000X-0.225000X0.250000X0*%
%ADD11RoundRect,0.225000X0.225000X0.250000X-0.225000X0.250000X-0.225000X-0.250000X0.225000X-0.250000X0*%
%ADD12RoundRect,0.250000X-0.325000X-0.650000X0.325000X-0.650000X0.325000X0.650000X-0.325000X0.650000X0*%
%ADD13RoundRect,0.200000X0.200000X0.275000X-0.200000X0.275000X-0.200000X-0.275000X0.200000X-0.275000X0*%
%ADD14RoundRect,0.242500X0.422500X-0.242500X0.422500X0.242500X-0.422500X0.242500X-0.422500X-0.242500X0*%
%ADD15RoundRect,0.150000X0.150000X-0.825000X0.150000X0.825000X-0.150000X0.825000X-0.150000X-0.825000X0*%
%ADD16RoundRect,0.200000X-0.275000X0.200000X-0.275000X-0.200000X0.275000X-0.200000X0.275000X0.200000X0*%
%ADD17R,0.250000X0.675000*%
%ADD18R,0.675000X0.250000*%
%ADD19R,1.903000X2.790000*%
%ADD20RoundRect,0.200000X-0.200000X-0.275000X0.200000X-0.275000X0.200000X0.275000X-0.200000X0.275000X0*%
%ADD21RoundRect,0.200000X0.275000X-0.200000X0.275000X0.200000X-0.275000X0.200000X-0.275000X-0.200000X0*%
%ADD22RoundRect,0.150000X0.512500X0.150000X-0.512500X0.150000X-0.512500X-0.150000X0.512500X-0.150000X0*%
%ADD23RoundRect,0.250000X0.650000X-0.325000X0.650000X0.325000X-0.650000X0.325000X-0.650000X-0.325000X0*%
%ADD24RoundRect,0.250000X-0.362500X-1.425000X0.362500X-1.425000X0.362500X1.425000X-0.362500X1.425000X0*%
%ADD25RoundRect,0.225000X0.250000X-0.225000X0.250000X0.225000X-0.250000X0.225000X-0.250000X-0.225000X0*%
%ADD26R,1.600000X2.200000*%
%ADD27RoundRect,0.125000X0.125000X-0.537500X0.125000X0.537500X-0.125000X0.537500X-0.125000X-0.537500X0*%
%ADD28RoundRect,0.150000X-0.512500X-0.150000X0.512500X-0.150000X0.512500X0.150000X-0.512500X0.150000X0*%
G04 APERTURE END LIST*
D10*
X105600000Y-64925000D03*
X104050000Y-64925000D03*
X99900000Y-63400000D03*
X101450000Y-63400000D03*
D11*
X97746484Y-60750000D03*
X96196484Y-60750000D03*
D12*
X101275001Y-83325001D03*
X104225001Y-83325001D03*
D13*
X90300000Y-45375000D03*
X88650000Y-45375000D03*
D14*
X85925000Y-40300000D03*
X87575000Y-40300000D03*
X85925000Y-41500000D03*
X87575000Y-41500000D03*
D15*
X84845000Y-43375000D03*
X86115000Y-43375000D03*
X87385000Y-43375000D03*
X88655000Y-43375000D03*
X88655000Y-38425000D03*
X87385000Y-38425000D03*
X86115000Y-38425000D03*
X84845000Y-38425000D03*
D16*
X85325000Y-82137500D03*
X85325000Y-83787500D03*
D17*
X92159409Y-63012500D03*
X92659409Y-63012500D03*
X93159409Y-63012500D03*
X93659409Y-63012500D03*
D18*
X93921909Y-62250000D03*
X93921909Y-61750000D03*
X93921909Y-61250000D03*
D17*
X93659409Y-60487500D03*
X93159409Y-60487500D03*
X92659409Y-60487500D03*
X92159409Y-60487500D03*
D18*
X91896909Y-61250000D03*
X91896909Y-61750000D03*
X91896909Y-62250000D03*
D19*
X98526501Y-76525000D03*
X93673501Y-76525000D03*
D20*
X88200000Y-76550000D03*
X89850000Y-76550000D03*
D21*
X101000000Y-72425000D03*
X101000000Y-70775000D03*
D20*
X88200000Y-75025000D03*
X89850000Y-75025000D03*
X88900000Y-60650000D03*
X90550000Y-60650000D03*
D11*
X104025000Y-73900000D03*
X102475000Y-73900000D03*
D22*
X102387500Y-66825000D03*
X102387500Y-65875000D03*
X102387500Y-64925000D03*
X100112500Y-64925000D03*
X100112500Y-66825000D03*
D23*
X96125000Y-72250000D03*
X96125000Y-69300000D03*
D24*
X93437501Y-82525000D03*
X99362501Y-82525000D03*
D10*
X101325001Y-79025000D03*
X102875001Y-79025000D03*
D25*
X88275000Y-79600000D03*
X88275000Y-78050000D03*
D21*
X105500000Y-72425000D03*
X105500000Y-70775000D03*
D12*
X101275001Y-80925000D03*
X104225001Y-80925000D03*
D25*
X98025000Y-72375000D03*
X98025000Y-70825000D03*
D21*
X93810970Y-66481765D03*
X93810970Y-64831765D03*
D13*
X97800000Y-59225000D03*
X96150000Y-59225000D03*
X101850000Y-47050000D03*
X100200000Y-47050000D03*
D25*
X96850000Y-66850000D03*
X96850000Y-65300000D03*
D13*
X90300000Y-46875000D03*
X88650000Y-46875000D03*
D25*
X89775000Y-79600000D03*
X89775000Y-78050000D03*
D16*
X83825000Y-82137500D03*
X83825000Y-83787500D03*
D14*
X97450000Y-40475000D03*
X97450000Y-41675000D03*
X99100000Y-40475000D03*
X99100000Y-41675000D03*
D15*
X96370000Y-43550000D03*
X97640000Y-43550000D03*
X98910000Y-43550000D03*
X100180000Y-43550000D03*
X100180000Y-38600000D03*
X98910000Y-38600000D03*
X97640000Y-38600000D03*
X96370000Y-38600000D03*
D13*
X101850000Y-45550000D03*
X100200000Y-45550000D03*
D11*
X102600000Y-68350000D03*
X101050000Y-68350000D03*
D26*
X103575000Y-42550000D03*
X103575000Y-39550000D03*
D11*
X97744460Y-62262652D03*
X96194460Y-62262652D03*
D27*
X84800000Y-78600000D03*
X85450000Y-78600000D03*
X86100000Y-78600000D03*
X86750000Y-78600000D03*
X86750000Y-76325000D03*
X86100000Y-76325000D03*
X85450000Y-76325000D03*
X84800000Y-76325000D03*
D20*
X102000000Y-60675000D03*
X103650000Y-60675000D03*
D23*
X93799998Y-72250000D03*
X93799998Y-69300000D03*
D20*
X102000000Y-59150000D03*
X103650000Y-59150000D03*
D25*
X104000000Y-72375000D03*
X104000000Y-70825000D03*
X98350000Y-66850000D03*
X98350000Y-65300000D03*
D11*
X85350000Y-80712500D03*
X83800000Y-80712500D03*
D21*
X102500000Y-72425000D03*
X102500000Y-70775000D03*
D28*
X101552501Y-75575000D03*
X101552501Y-76525000D03*
X101552501Y-77475000D03*
X103827501Y-77475000D03*
X103827501Y-76525000D03*
X103827501Y-75575000D03*
D21*
X99500000Y-72425000D03*
X99500000Y-70775000D03*
D26*
X91875000Y-42500000D03*
X91875000Y-39500000D03*
M02*
