%TF.GenerationSoftware,KiCad,Pcbnew,6.0.7-f9a2dced07~116~ubuntu20.04.1*%
%TF.CreationDate,2022-09-21T16:42:24+02:00*%
%TF.ProjectId,pylot_shield,70796c6f-745f-4736-9869-656c642e6b69,rev?*%
%TF.SameCoordinates,Original*%
%TF.FileFunction,Soldermask,Top*%
%TF.FilePolarity,Negative*%
%FSLAX46Y46*%
G04 Gerber Fmt 4.6, Leading zero omitted, Abs format (unit mm)*
G04 Created by KiCad (PCBNEW 6.0.7-f9a2dced07~116~ubuntu20.04.1) date 2022-09-21 16:42:24*
%MOMM*%
%LPD*%
G01*
G04 APERTURE LIST*
G04 Aperture macros list*
%AMRoundRect*
0 Rectangle with rounded corners*
0 $1 Rounding radius*
0 $2 $3 $4 $5 $6 $7 $8 $9 X,Y pos of 4 corners*
0 Add a 4 corners polygon primitive as box body*
4,1,4,$2,$3,$4,$5,$6,$7,$8,$9,$2,$3,0*
0 Add four circle primitives for the rounded corners*
1,1,$1+$1,$2,$3*
1,1,$1+$1,$4,$5*
1,1,$1+$1,$6,$7*
1,1,$1+$1,$8,$9*
0 Add four rect primitives between the rounded corners*
20,1,$1+$1,$2,$3,$4,$5,0*
20,1,$1+$1,$4,$5,$6,$7,0*
20,1,$1+$1,$6,$7,$8,$9,0*
20,1,$1+$1,$8,$9,$2,$3,0*%
G04 Aperture macros list end*
%ADD10RoundRect,0.225000X-0.225000X-0.250000X0.225000X-0.250000X0.225000X0.250000X-0.225000X0.250000X0*%
%ADD11RoundRect,0.225000X0.225000X0.250000X-0.225000X0.250000X-0.225000X-0.250000X0.225000X-0.250000X0*%
%ADD12RoundRect,0.250000X-0.325000X-0.650000X0.325000X-0.650000X0.325000X0.650000X-0.325000X0.650000X0*%
%ADD13R,1.700000X1.700000*%
%ADD14O,1.700000X1.700000*%
%ADD15RoundRect,0.200000X0.200000X0.275000X-0.200000X0.275000X-0.200000X-0.275000X0.200000X-0.275000X0*%
%ADD16RoundRect,0.150000X0.150000X-0.825000X0.150000X0.825000X-0.150000X0.825000X-0.150000X-0.825000X0*%
%ADD17C,0.800000*%
%ADD18R,3.300000X2.410000*%
%ADD19RoundRect,0.200000X-0.275000X0.200000X-0.275000X-0.200000X0.275000X-0.200000X0.275000X0.200000X0*%
%ADD20R,0.250000X0.675000*%
%ADD21R,0.675000X0.250000*%
%ADD22R,1.903000X2.790000*%
%ADD23RoundRect,0.200000X-0.200000X-0.275000X0.200000X-0.275000X0.200000X0.275000X-0.200000X0.275000X0*%
%ADD24RoundRect,0.200000X0.275000X-0.200000X0.275000X0.200000X-0.275000X0.200000X-0.275000X-0.200000X0*%
%ADD25R,2.400000X2.400000*%
%ADD26C,2.400000*%
%ADD27RoundRect,0.150000X0.512500X0.150000X-0.512500X0.150000X-0.512500X-0.150000X0.512500X-0.150000X0*%
%ADD28RoundRect,0.250000X0.650000X-0.325000X0.650000X0.325000X-0.650000X0.325000X-0.650000X-0.325000X0*%
%ADD29R,1.350000X1.350000*%
%ADD30O,1.350000X1.350000*%
%ADD31RoundRect,0.250000X-0.362500X-1.425000X0.362500X-1.425000X0.362500X1.425000X-0.362500X1.425000X0*%
%ADD32RoundRect,0.225000X0.250000X-0.225000X0.250000X0.225000X-0.250000X0.225000X-0.250000X-0.225000X0*%
%ADD33C,2.750000*%
%ADD34R,1.508000X1.508000*%
%ADD35C,1.508000*%
%ADD36R,1.600000X2.200000*%
%ADD37O,4.000000X9.000000*%
%ADD38RoundRect,0.125000X0.125000X-0.537500X0.125000X0.537500X-0.125000X0.537500X-0.125000X-0.537500X0*%
%ADD39RoundRect,0.150000X-0.512500X-0.150000X0.512500X-0.150000X0.512500X0.150000X-0.512500X0.150000X0*%
G04 APERTURE END LIST*
D10*
X105600000Y-64925000D03*
X104050000Y-64925000D03*
X99900000Y-63400000D03*
X101450000Y-63400000D03*
D11*
X97746484Y-60750000D03*
X96196484Y-60750000D03*
D12*
X101275001Y-83325001D03*
X104225001Y-83325001D03*
D13*
X103275000Y-50150000D03*
D14*
X103275000Y-52690000D03*
X103275000Y-55230000D03*
D15*
X90300000Y-45375000D03*
X88650000Y-45375000D03*
D16*
X84845000Y-43375000D03*
X86115000Y-43375000D03*
X87385000Y-43375000D03*
X88655000Y-43375000D03*
X88655000Y-38425000D03*
X87385000Y-38425000D03*
X86115000Y-38425000D03*
X84845000Y-38425000D03*
D17*
X85950000Y-40300000D03*
X85950000Y-41500000D03*
D18*
X86750000Y-40900000D03*
D17*
X87550000Y-41500000D03*
X87550000Y-40300000D03*
D19*
X85325000Y-82137500D03*
X85325000Y-83787500D03*
D20*
X92159409Y-63012500D03*
X92659409Y-63012500D03*
X93159409Y-63012500D03*
X93659409Y-63012500D03*
D21*
X93921909Y-62250000D03*
X93921909Y-61750000D03*
X93921909Y-61250000D03*
D20*
X93659409Y-60487500D03*
X93159409Y-60487500D03*
X92659409Y-60487500D03*
X92159409Y-60487500D03*
D21*
X91896909Y-61250000D03*
X91896909Y-61750000D03*
X91896909Y-62250000D03*
D22*
X98526501Y-76525000D03*
X93673501Y-76525000D03*
D23*
X88200000Y-76550000D03*
X89850000Y-76550000D03*
D24*
X101000000Y-72425000D03*
X101000000Y-70775000D03*
D25*
X98150000Y-32500000D03*
D26*
X94650000Y-32500000D03*
D23*
X88200000Y-75025000D03*
X89850000Y-75025000D03*
X88900000Y-60650000D03*
X90550000Y-60650000D03*
D11*
X104025000Y-73900000D03*
X102475000Y-73900000D03*
D27*
X102387500Y-66825000D03*
X102387500Y-65875000D03*
X102387500Y-64925000D03*
X100112500Y-64925000D03*
X100112500Y-66825000D03*
D28*
X96125000Y-72250000D03*
X96125000Y-69300000D03*
D29*
X88850000Y-65700000D03*
D30*
X88850000Y-67700000D03*
X88850000Y-69700000D03*
X88850000Y-71700000D03*
D31*
X93437501Y-82525000D03*
X99362501Y-82525000D03*
D10*
X101325001Y-79025000D03*
X102875001Y-79025000D03*
D32*
X88275000Y-79600000D03*
X88275000Y-78050000D03*
D24*
X105500000Y-72425000D03*
X105500000Y-70775000D03*
D12*
X101275001Y-80925000D03*
X104225001Y-80925000D03*
D32*
X98025000Y-72375000D03*
X98025000Y-70825000D03*
D24*
X93810970Y-66481765D03*
X93810970Y-64831765D03*
D29*
X84500000Y-65700000D03*
D30*
X84500000Y-67700000D03*
X84500000Y-69700000D03*
X84500000Y-71700000D03*
D15*
X97800000Y-59225000D03*
X96150000Y-59225000D03*
X101850000Y-47050000D03*
X100200000Y-47050000D03*
D32*
X96850000Y-66850000D03*
X96850000Y-65300000D03*
D15*
X90300000Y-46875000D03*
X88650000Y-46875000D03*
D32*
X89775000Y-79600000D03*
X89775000Y-78050000D03*
D19*
X83825000Y-82137500D03*
X83825000Y-83787500D03*
D16*
X96370000Y-43550000D03*
X97640000Y-43550000D03*
X98910000Y-43550000D03*
X100180000Y-43550000D03*
X100180000Y-38600000D03*
X98910000Y-38600000D03*
X97640000Y-38600000D03*
X96370000Y-38600000D03*
D17*
X99075000Y-41675000D03*
X97475000Y-40475000D03*
X97475000Y-41675000D03*
X99075000Y-40475000D03*
D18*
X98275000Y-41075000D03*
D13*
X92100000Y-50175000D03*
D14*
X92100000Y-52715000D03*
X92100000Y-55255000D03*
D15*
X101850000Y-45550000D03*
X100200000Y-45550000D03*
D33*
X103110000Y-88990000D03*
X80110000Y-30990000D03*
X80110000Y-88990000D03*
X103110000Y-30990000D03*
D34*
X81380000Y-84120000D03*
D35*
X78840000Y-84120000D03*
X81380000Y-81580000D03*
X78840000Y-81580000D03*
X81380000Y-79040000D03*
X78840000Y-79040000D03*
X81380000Y-76500000D03*
X78840000Y-76500000D03*
X81380000Y-73960000D03*
X78840000Y-73960000D03*
X81380000Y-71420000D03*
X78840000Y-71420000D03*
X81380000Y-68880000D03*
X78840000Y-68880000D03*
X81380000Y-66340000D03*
X78840000Y-66340000D03*
X81380000Y-63800000D03*
X78840000Y-63800000D03*
X81380000Y-61260000D03*
X78840000Y-61260000D03*
X81380000Y-58720000D03*
X78840000Y-58720000D03*
X81380000Y-56180000D03*
X78840000Y-56180000D03*
X81380000Y-53640000D03*
X78840000Y-53640000D03*
X81380000Y-51100000D03*
X78840000Y-51100000D03*
X81380000Y-48560000D03*
X78840000Y-48560000D03*
X81380000Y-46020000D03*
X78840000Y-46020000D03*
X81380000Y-43480000D03*
X78840000Y-43480000D03*
X81380000Y-40940000D03*
X78840000Y-40940000D03*
X81380000Y-38400000D03*
X78840000Y-38400000D03*
X81380000Y-35860000D03*
X78840000Y-35860000D03*
D11*
X102600000Y-68350000D03*
X101050000Y-68350000D03*
D36*
X103575000Y-42550000D03*
X103575000Y-39550000D03*
D13*
X88375000Y-50175000D03*
D14*
X88375000Y-52715000D03*
X88375000Y-55255000D03*
D11*
X97744460Y-62262652D03*
X96194460Y-62262652D03*
D37*
X89350000Y-92450000D03*
X94350000Y-92450000D03*
D38*
X84800000Y-78600000D03*
X85450000Y-78600000D03*
X86100000Y-78600000D03*
X86750000Y-78600000D03*
X86750000Y-76325000D03*
X86100000Y-76325000D03*
X85450000Y-76325000D03*
X84800000Y-76325000D03*
D13*
X99550000Y-50150000D03*
D14*
X99550000Y-52690000D03*
X99550000Y-55230000D03*
D23*
X102000000Y-60675000D03*
X103650000Y-60675000D03*
D13*
X84650000Y-50175000D03*
D14*
X84650000Y-52715000D03*
X84650000Y-55255000D03*
D28*
X93799998Y-72250000D03*
X93799998Y-69300000D03*
D23*
X102000000Y-59150000D03*
X103650000Y-59150000D03*
D32*
X104000000Y-72375000D03*
X104000000Y-70825000D03*
D13*
X95825000Y-50160000D03*
D14*
X95825000Y-52700000D03*
X95825000Y-55240000D03*
D32*
X98350000Y-66850000D03*
X98350000Y-65300000D03*
D11*
X85350000Y-80712500D03*
X83800000Y-80712500D03*
D24*
X102500000Y-72425000D03*
X102500000Y-70775000D03*
D39*
X101552501Y-75575000D03*
X101552501Y-76525000D03*
X101552501Y-77475000D03*
X103827501Y-77475000D03*
X103827501Y-76525000D03*
X103827501Y-75575000D03*
D24*
X99500000Y-72425000D03*
X99500000Y-70775000D03*
D25*
X88650000Y-32510000D03*
D26*
X85150000Y-32510000D03*
D36*
X91875000Y-42500000D03*
X91875000Y-39500000D03*
M02*
