M48
; DRILL file {KiCad 6.0.7-f9a2dced07~116~ubuntu20.04.1} date mer. 21 sept. 2022 16:42:22
; FORMAT={-:-/ absolute / inch / decimal}
; #@! TF.CreationDate,2022-09-21T16:42:22+02:00
; #@! TF.GenerationSoftware,Kicad,Pcbnew,6.0.7-f9a2dced07~116~ubuntu20.04.1
; #@! TF.FileFunction,Plated,1,2,PTH
FMAT,2
INCH
; #@! TA.AperFunction,Plated,PTH,ViaDrill
T1C0.0118
; #@! TA.AperFunction,Plated,PTH,ViaDrill
T2C0.0157
; #@! TA.AperFunction,Plated,PTH,ComponentDrill
T3C0.0157
; #@! TA.AperFunction,Plated,PTH,ComponentDrill
T4C0.0315
; #@! TA.AperFunction,Plated,PTH,ComponentDrill
T5C0.0394
; #@! TA.AperFunction,Plated,PTH,ComponentDrill
T6C0.0472
; #@! TA.AperFunction,Plated,PTH,ComponentDrill
T7C0.1181
%
G90
G05
T1
X3.2825Y-1.8071
X3.2943Y-2.3809
X3.2953Y-1.8829
X3.2992Y-2.314
X3.3514Y-2.9469
X3.3543Y-1.8258
X3.3691Y-2.4301
X3.377Y-3.0492
X3.3927Y-1.8888
X3.3986Y-2.9124
X3.4163Y-2.3248
X3.4242Y-2.9606
X3.4291Y-3.2313
X3.4469Y-3.311
X3.4498Y-1.8868
X3.4862Y-2.9026
X3.4951Y-2.3406
X3.5049Y-3.1339
X3.5069Y-1.8888
X3.5384Y-2.9154
X3.5522Y-1.9203
X3.5837Y-2.5807
X3.6161Y-3.0413
X3.6161Y-3.1043
X3.6476Y-2.5177
X3.6575Y-2.4311
X3.6634Y-3.1437
X3.688Y-2.6663
X3.688Y-2.8898
X3.6929Y-2.3317
X3.7008Y-2.0217
X3.7264Y-3.1437
X3.7362Y-2.6663
X3.7382Y-2.4793
X3.7411Y-1.8081
X3.7441Y-2.3563
X3.7441Y-2.4213
X3.751Y-2.8898
X3.7648Y-2.5719
X3.7733Y-1.8366
X3.8159Y-2.8898
X3.8465Y-3.1437
X3.8789Y-2.8898
X3.9094Y-3.1437
X3.939Y-2.9449
X3.9419Y-2.5935
X3.9449Y-3.064
X4.0433Y-2.9754
X4.063Y-2.4321
X4.0965Y-2.7096
T2
X3.3159Y-3.5207
X3.623Y-3.2411
X3.6752Y-1.7451
X3.7106Y-1.878
X3.8898Y-3.5128
X3.9173Y-2.7421
X3.9902Y-3.3661
X4.0709Y-1.747
X4.0925Y-1.3494
X4.1043Y-1.8976
X4.129Y-3.002
X4.1358Y-2.4272
T3
X3.3839Y-1.5866
X3.3839Y-1.6339
X3.4469Y-1.5866
X3.4469Y-1.6339
X3.8376Y-1.5935
X3.8376Y-1.6407
X3.9006Y-1.5935
X3.9006Y-1.6407
T4
X3.3268Y-2.5866
X3.3268Y-2.6654
X3.3268Y-2.7441
X3.3268Y-2.8228
X3.498Y-2.5866
X3.498Y-2.6654
X3.498Y-2.7441
X3.498Y-2.8228
T5
X3.1039Y-1.4118
X3.1039Y-1.5118
X3.1039Y-1.6118
X3.1039Y-1.7118
X3.1039Y-1.8118
X3.1039Y-1.9118
X3.1039Y-2.0118
X3.1039Y-2.1118
X3.1039Y-2.2118
X3.1039Y-2.3118
X3.1039Y-2.4118
X3.1039Y-2.5118
X3.1039Y-2.6118
X3.1039Y-2.7118
X3.1039Y-2.8118
X3.1039Y-2.9118
X3.1039Y-3.0118
X3.1039Y-3.1118
X3.1039Y-3.2118
X3.1039Y-3.3118
X3.2039Y-1.4118
X3.2039Y-1.5118
X3.2039Y-1.6118
X3.2039Y-1.7118
X3.2039Y-1.8118
X3.2039Y-1.9118
X3.2039Y-2.0118
X3.2039Y-2.1118
X3.2039Y-2.2118
X3.2039Y-2.3118
X3.2039Y-2.4118
X3.2039Y-2.5118
X3.2039Y-2.6118
X3.2039Y-2.7118
X3.2039Y-2.8118
X3.2039Y-2.9118
X3.2039Y-3.0118
X3.2039Y-3.1118
X3.2039Y-3.2118
X3.2039Y-3.3118
X3.3327Y-1.9754
X3.3327Y-2.0754
X3.3327Y-2.1754
X3.4793Y-1.9754
X3.4793Y-2.0754
X3.4793Y-2.1754
X3.626Y-1.9754
X3.626Y-2.0754
X3.626Y-2.1754
X3.7726Y-1.9748
X3.7726Y-2.0748
X3.7726Y-2.1748
X3.9193Y-1.9744
X3.9193Y-2.0744
X3.9193Y-2.1744
X4.0659Y-1.9744
X4.0659Y-2.0744
X4.0659Y-2.1744
T6
X3.3524Y-1.2799
X3.4902Y-1.2799
X3.7264Y-1.2795
X3.8642Y-1.2795
T7
G00X3.5177Y-3.5413
M15
G01X3.5177Y-3.7382
M16
G05
G00X3.7146Y-3.5413
M15
G01X3.7146Y-3.7382
M16
G05
T0
M30
