%TF.GenerationSoftware,KiCad,Pcbnew,6.0.7-f9a2dced07~116~ubuntu20.04.1*%
%TF.CreationDate,2022-09-21T16:42:24+02:00*%
%TF.ProjectId,pylot_shield,70796c6f-745f-4736-9869-656c642e6b69,rev?*%
%TF.SameCoordinates,Original*%
%TF.FileFunction,Legend,Top*%
%TF.FilePolarity,Positive*%
%FSLAX46Y46*%
G04 Gerber Fmt 4.6, Leading zero omitted, Abs format (unit mm)*
G04 Created by KiCad (PCBNEW 6.0.7-f9a2dced07~116~ubuntu20.04.1) date 2022-09-21 16:42:24*
%MOMM*%
%LPD*%
G01*
G04 APERTURE LIST*
G04 Aperture macros list*
%AMRoundRect*
0 Rectangle with rounded corners*
0 $1 Rounding radius*
0 $2 $3 $4 $5 $6 $7 $8 $9 X,Y pos of 4 corners*
0 Add a 4 corners polygon primitive as box body*
4,1,4,$2,$3,$4,$5,$6,$7,$8,$9,$2,$3,0*
0 Add four circle primitives for the rounded corners*
1,1,$1+$1,$2,$3*
1,1,$1+$1,$4,$5*
1,1,$1+$1,$6,$7*
1,1,$1+$1,$8,$9*
0 Add four rect primitives between the rounded corners*
20,1,$1+$1,$2,$3,$4,$5,0*
20,1,$1+$1,$4,$5,$6,$7,0*
20,1,$1+$1,$6,$7,$8,$9,0*
20,1,$1+$1,$8,$9,$2,$3,0*%
G04 Aperture macros list end*
%ADD10C,0.150000*%
%ADD11C,0.120000*%
%ADD12C,0.100000*%
%ADD13RoundRect,0.225000X-0.225000X-0.250000X0.225000X-0.250000X0.225000X0.250000X-0.225000X0.250000X0*%
%ADD14RoundRect,0.225000X0.225000X0.250000X-0.225000X0.250000X-0.225000X-0.250000X0.225000X-0.250000X0*%
%ADD15RoundRect,0.250000X-0.325000X-0.650000X0.325000X-0.650000X0.325000X0.650000X-0.325000X0.650000X0*%
%ADD16R,1.700000X1.700000*%
%ADD17O,1.700000X1.700000*%
%ADD18RoundRect,0.200000X0.200000X0.275000X-0.200000X0.275000X-0.200000X-0.275000X0.200000X-0.275000X0*%
%ADD19RoundRect,0.150000X0.150000X-0.825000X0.150000X0.825000X-0.150000X0.825000X-0.150000X-0.825000X0*%
%ADD20C,0.800000*%
%ADD21R,3.300000X2.410000*%
%ADD22RoundRect,0.200000X-0.275000X0.200000X-0.275000X-0.200000X0.275000X-0.200000X0.275000X0.200000X0*%
%ADD23R,0.250000X0.675000*%
%ADD24R,0.675000X0.250000*%
%ADD25R,1.903000X2.790000*%
%ADD26RoundRect,0.200000X-0.200000X-0.275000X0.200000X-0.275000X0.200000X0.275000X-0.200000X0.275000X0*%
%ADD27RoundRect,0.200000X0.275000X-0.200000X0.275000X0.200000X-0.275000X0.200000X-0.275000X-0.200000X0*%
%ADD28R,2.400000X2.400000*%
%ADD29C,2.400000*%
%ADD30RoundRect,0.150000X0.512500X0.150000X-0.512500X0.150000X-0.512500X-0.150000X0.512500X-0.150000X0*%
%ADD31RoundRect,0.250000X0.650000X-0.325000X0.650000X0.325000X-0.650000X0.325000X-0.650000X-0.325000X0*%
%ADD32R,1.350000X1.350000*%
%ADD33O,1.350000X1.350000*%
%ADD34RoundRect,0.250000X-0.362500X-1.425000X0.362500X-1.425000X0.362500X1.425000X-0.362500X1.425000X0*%
%ADD35RoundRect,0.225000X0.250000X-0.225000X0.250000X0.225000X-0.250000X0.225000X-0.250000X-0.225000X0*%
%ADD36C,2.750000*%
%ADD37R,1.508000X1.508000*%
%ADD38C,1.508000*%
%ADD39R,1.600000X2.200000*%
%ADD40O,4.000000X9.000000*%
%ADD41RoundRect,0.125000X0.125000X-0.537500X0.125000X0.537500X-0.125000X0.537500X-0.125000X-0.537500X0*%
%ADD42RoundRect,0.150000X-0.512500X-0.150000X0.512500X-0.150000X0.512500X0.150000X-0.512500X0.150000X0*%
G04 APERTURE END LIST*
D10*
X104207142Y-66757142D02*
X104159523Y-66804761D01*
X104016666Y-66852380D01*
X103921428Y-66852380D01*
X103778571Y-66804761D01*
X103683333Y-66709523D01*
X103635714Y-66614285D01*
X103588095Y-66423809D01*
X103588095Y-66280952D01*
X103635714Y-66090476D01*
X103683333Y-65995238D01*
X103778571Y-65900000D01*
X103921428Y-65852380D01*
X104016666Y-65852380D01*
X104159523Y-65900000D01*
X104207142Y-65947619D01*
X105159523Y-66852380D02*
X104588095Y-66852380D01*
X104873809Y-66852380D02*
X104873809Y-65852380D01*
X104778571Y-65995238D01*
X104683333Y-66090476D01*
X104588095Y-66138095D01*
X106111904Y-66852380D02*
X105540476Y-66852380D01*
X105826190Y-66852380D02*
X105826190Y-65852380D01*
X105730952Y-65995238D01*
X105635714Y-66090476D01*
X105540476Y-66138095D01*
X102957142Y-63782142D02*
X102909523Y-63829761D01*
X102766666Y-63877380D01*
X102671428Y-63877380D01*
X102528571Y-63829761D01*
X102433333Y-63734523D01*
X102385714Y-63639285D01*
X102338095Y-63448809D01*
X102338095Y-63305952D01*
X102385714Y-63115476D01*
X102433333Y-63020238D01*
X102528571Y-62925000D01*
X102671428Y-62877380D01*
X102766666Y-62877380D01*
X102909523Y-62925000D01*
X102957142Y-62972619D01*
X103909523Y-63877380D02*
X103338095Y-63877380D01*
X103623809Y-63877380D02*
X103623809Y-62877380D01*
X103528571Y-63020238D01*
X103433333Y-63115476D01*
X103338095Y-63163095D01*
X104766666Y-62877380D02*
X104576190Y-62877380D01*
X104480952Y-62925000D01*
X104433333Y-62972619D01*
X104338095Y-63115476D01*
X104290476Y-63305952D01*
X104290476Y-63686904D01*
X104338095Y-63782142D01*
X104385714Y-63829761D01*
X104480952Y-63877380D01*
X104671428Y-63877380D01*
X104766666Y-63829761D01*
X104814285Y-63782142D01*
X104861904Y-63686904D01*
X104861904Y-63448809D01*
X104814285Y-63353571D01*
X104766666Y-63305952D01*
X104671428Y-63258333D01*
X104480952Y-63258333D01*
X104385714Y-63305952D01*
X104338095Y-63353571D01*
X104290476Y-63448809D01*
X99229817Y-61157142D02*
X99182198Y-61204761D01*
X99039341Y-61252380D01*
X98944103Y-61252380D01*
X98801245Y-61204761D01*
X98706007Y-61109523D01*
X98658388Y-61014285D01*
X98610769Y-60823809D01*
X98610769Y-60680952D01*
X98658388Y-60490476D01*
X98706007Y-60395238D01*
X98801245Y-60300000D01*
X98944103Y-60252380D01*
X99039341Y-60252380D01*
X99182198Y-60300000D01*
X99229817Y-60347619D01*
X99563150Y-60252380D02*
X100229817Y-60252380D01*
X99801245Y-61252380D01*
X106182142Y-83491666D02*
X106229761Y-83539285D01*
X106277380Y-83682142D01*
X106277380Y-83777380D01*
X106229761Y-83920238D01*
X106134523Y-84015476D01*
X106039285Y-84063095D01*
X105848809Y-84110714D01*
X105705952Y-84110714D01*
X105515476Y-84063095D01*
X105420238Y-84015476D01*
X105325000Y-83920238D01*
X105277380Y-83777380D01*
X105277380Y-83682142D01*
X105325000Y-83539285D01*
X105372619Y-83491666D01*
X105610714Y-82634523D02*
X106277380Y-82634523D01*
X105229761Y-82872619D02*
X105944047Y-83110714D01*
X105944047Y-82491666D01*
X102440476Y-56827380D02*
X102440476Y-57541666D01*
X102392857Y-57684523D01*
X102297619Y-57779761D01*
X102154761Y-57827380D01*
X102059523Y-57827380D01*
X103440476Y-57827380D02*
X102869047Y-57827380D01*
X103154761Y-57827380D02*
X103154761Y-56827380D01*
X103059523Y-56970238D01*
X102964285Y-57065476D01*
X102869047Y-57113095D01*
X104059523Y-56827380D02*
X104154761Y-56827380D01*
X104250000Y-56875000D01*
X104297619Y-56922619D01*
X104345238Y-57017857D01*
X104392857Y-57208333D01*
X104392857Y-57446428D01*
X104345238Y-57636904D01*
X104297619Y-57732142D01*
X104250000Y-57779761D01*
X104154761Y-57827380D01*
X104059523Y-57827380D01*
X103964285Y-57779761D01*
X103916666Y-57732142D01*
X103869047Y-57636904D01*
X103821428Y-57446428D01*
X103821428Y-57208333D01*
X103869047Y-57017857D01*
X103916666Y-56922619D01*
X103964285Y-56875000D01*
X104059523Y-56827380D01*
X85907142Y-45877380D02*
X85573809Y-45401190D01*
X85335714Y-45877380D02*
X85335714Y-44877380D01*
X85716666Y-44877380D01*
X85811904Y-44925000D01*
X85859523Y-44972619D01*
X85907142Y-45067857D01*
X85907142Y-45210714D01*
X85859523Y-45305952D01*
X85811904Y-45353571D01*
X85716666Y-45401190D01*
X85335714Y-45401190D01*
X86859523Y-45877380D02*
X86288095Y-45877380D01*
X86573809Y-45877380D02*
X86573809Y-44877380D01*
X86478571Y-45020238D01*
X86383333Y-45115476D01*
X86288095Y-45163095D01*
X87192857Y-44877380D02*
X87811904Y-44877380D01*
X87478571Y-45258333D01*
X87621428Y-45258333D01*
X87716666Y-45305952D01*
X87764285Y-45353571D01*
X87811904Y-45448809D01*
X87811904Y-45686904D01*
X87764285Y-45782142D01*
X87716666Y-45829761D01*
X87621428Y-45877380D01*
X87335714Y-45877380D01*
X87240476Y-45829761D01*
X87192857Y-45782142D01*
X82977380Y-44111904D02*
X83786904Y-44111904D01*
X83882142Y-44064285D01*
X83929761Y-44016666D01*
X83977380Y-43921428D01*
X83977380Y-43730952D01*
X83929761Y-43635714D01*
X83882142Y-43588095D01*
X83786904Y-43540476D01*
X82977380Y-43540476D01*
X82977380Y-43159523D02*
X82977380Y-42492857D01*
X83977380Y-42921428D01*
X85802380Y-86542857D02*
X85326190Y-86876190D01*
X85802380Y-87114285D02*
X84802380Y-87114285D01*
X84802380Y-86733333D01*
X84850000Y-86638095D01*
X84897619Y-86590476D01*
X84992857Y-86542857D01*
X85135714Y-86542857D01*
X85230952Y-86590476D01*
X85278571Y-86638095D01*
X85326190Y-86733333D01*
X85326190Y-87114285D01*
X84897619Y-86161904D02*
X84850000Y-86114285D01*
X84802380Y-86019047D01*
X84802380Y-85780952D01*
X84850000Y-85685714D01*
X84897619Y-85638095D01*
X84992857Y-85590476D01*
X85088095Y-85590476D01*
X85230952Y-85638095D01*
X85802380Y-86209523D01*
X85802380Y-85590476D01*
X84802380Y-84685714D02*
X84802380Y-85161904D01*
X85278571Y-85209523D01*
X85230952Y-85161904D01*
X85183333Y-85066666D01*
X85183333Y-84828571D01*
X85230952Y-84733333D01*
X85278571Y-84685714D01*
X85373809Y-84638095D01*
X85611904Y-84638095D01*
X85707142Y-84685714D01*
X85754761Y-84733333D01*
X85802380Y-84828571D01*
X85802380Y-85066666D01*
X85754761Y-85161904D01*
X85707142Y-85209523D01*
X91313095Y-58652380D02*
X91313095Y-59461904D01*
X91360714Y-59557142D01*
X91408333Y-59604761D01*
X91503571Y-59652380D01*
X91694047Y-59652380D01*
X91789285Y-59604761D01*
X91836904Y-59557142D01*
X91884523Y-59461904D01*
X91884523Y-58652380D01*
X92265476Y-58652380D02*
X92884523Y-58652380D01*
X92551190Y-59033333D01*
X92694047Y-59033333D01*
X92789285Y-59080952D01*
X92836904Y-59128571D01*
X92884523Y-59223809D01*
X92884523Y-59461904D01*
X92836904Y-59557142D01*
X92789285Y-59604761D01*
X92694047Y-59652380D01*
X92408333Y-59652380D01*
X92313095Y-59604761D01*
X92265476Y-59557142D01*
X95933333Y-80402380D02*
X95457142Y-80402380D01*
X95457142Y-79402380D01*
X96790476Y-80402380D02*
X96219047Y-80402380D01*
X96504761Y-80402380D02*
X96504761Y-79402380D01*
X96409523Y-79545238D01*
X96314285Y-79640476D01*
X96219047Y-79688095D01*
X91283333Y-76627380D02*
X90950000Y-76151190D01*
X90711904Y-76627380D02*
X90711904Y-75627380D01*
X91092857Y-75627380D01*
X91188095Y-75675000D01*
X91235714Y-75722619D01*
X91283333Y-75817857D01*
X91283333Y-75960714D01*
X91235714Y-76055952D01*
X91188095Y-76103571D01*
X91092857Y-76151190D01*
X90711904Y-76151190D01*
X91664285Y-75722619D02*
X91711904Y-75675000D01*
X91807142Y-75627380D01*
X92045238Y-75627380D01*
X92140476Y-75675000D01*
X92188095Y-75722619D01*
X92235714Y-75817857D01*
X92235714Y-75913095D01*
X92188095Y-76055952D01*
X91616666Y-76627380D01*
X92235714Y-76627380D01*
X100991666Y-32727380D02*
X100991666Y-33441666D01*
X100944047Y-33584523D01*
X100848809Y-33679761D01*
X100705952Y-33727380D01*
X100610714Y-33727380D01*
X101896428Y-33060714D02*
X101896428Y-33727380D01*
X101658333Y-32679761D02*
X101420238Y-33394047D01*
X102039285Y-33394047D01*
X91283333Y-75352380D02*
X90950000Y-74876190D01*
X90711904Y-75352380D02*
X90711904Y-74352380D01*
X91092857Y-74352380D01*
X91188095Y-74400000D01*
X91235714Y-74447619D01*
X91283333Y-74542857D01*
X91283333Y-74685714D01*
X91235714Y-74780952D01*
X91188095Y-74828571D01*
X91092857Y-74876190D01*
X90711904Y-74876190D01*
X91616666Y-74352380D02*
X92235714Y-74352380D01*
X91902380Y-74733333D01*
X92045238Y-74733333D01*
X92140476Y-74780952D01*
X92188095Y-74828571D01*
X92235714Y-74923809D01*
X92235714Y-75161904D01*
X92188095Y-75257142D01*
X92140476Y-75304761D01*
X92045238Y-75352380D01*
X91759523Y-75352380D01*
X91664285Y-75304761D01*
X91616666Y-75257142D01*
X86132142Y-61052380D02*
X85798809Y-60576190D01*
X85560714Y-61052380D02*
X85560714Y-60052380D01*
X85941666Y-60052380D01*
X86036904Y-60100000D01*
X86084523Y-60147619D01*
X86132142Y-60242857D01*
X86132142Y-60385714D01*
X86084523Y-60480952D01*
X86036904Y-60528571D01*
X85941666Y-60576190D01*
X85560714Y-60576190D01*
X86513095Y-60147619D02*
X86560714Y-60100000D01*
X86655952Y-60052380D01*
X86894047Y-60052380D01*
X86989285Y-60100000D01*
X87036904Y-60147619D01*
X87084523Y-60242857D01*
X87084523Y-60338095D01*
X87036904Y-60480952D01*
X86465476Y-61052380D01*
X87084523Y-61052380D01*
X87941666Y-60385714D02*
X87941666Y-61052380D01*
X87703571Y-60004761D02*
X87465476Y-60719047D01*
X88084523Y-60719047D01*
X100683332Y-74282142D02*
X100635713Y-74329761D01*
X100492856Y-74377380D01*
X100397618Y-74377380D01*
X100254760Y-74329761D01*
X100159522Y-74234523D01*
X100111903Y-74139285D01*
X100064284Y-73948809D01*
X100064284Y-73805952D01*
X100111903Y-73615476D01*
X100159522Y-73520238D01*
X100254760Y-73425000D01*
X100397618Y-73377380D01*
X100492856Y-73377380D01*
X100635713Y-73425000D01*
X100683332Y-73472619D01*
X101540475Y-73377380D02*
X101349999Y-73377380D01*
X101254760Y-73425000D01*
X101207141Y-73472619D01*
X101111903Y-73615476D01*
X101064284Y-73805952D01*
X101064284Y-74186904D01*
X101111903Y-74282142D01*
X101159522Y-74329761D01*
X101254760Y-74377380D01*
X101445237Y-74377380D01*
X101540475Y-74329761D01*
X101588094Y-74282142D01*
X101635713Y-74186904D01*
X101635713Y-73948809D01*
X101588094Y-73853571D01*
X101540475Y-73805952D01*
X101445237Y-73758333D01*
X101254760Y-73758333D01*
X101159522Y-73805952D01*
X101111903Y-73853571D01*
X101064284Y-73948809D01*
X99177380Y-69286904D02*
X99986904Y-69286904D01*
X100082142Y-69239285D01*
X100129761Y-69191666D01*
X100177380Y-69096428D01*
X100177380Y-68905952D01*
X100129761Y-68810714D01*
X100082142Y-68763095D01*
X99986904Y-68715476D01*
X99177380Y-68715476D01*
X99177380Y-67810714D02*
X99177380Y-68001190D01*
X99225000Y-68096428D01*
X99272619Y-68144047D01*
X99415476Y-68239285D01*
X99605952Y-68286904D01*
X99986904Y-68286904D01*
X100082142Y-68239285D01*
X100129761Y-68191666D01*
X100177380Y-68096428D01*
X100177380Y-67905952D01*
X100129761Y-67810714D01*
X100082142Y-67763095D01*
X99986904Y-67715476D01*
X99748809Y-67715476D01*
X99653571Y-67763095D01*
X99605952Y-67810714D01*
X99558333Y-67905952D01*
X99558333Y-68096428D01*
X99605952Y-68191666D01*
X99653571Y-68239285D01*
X99748809Y-68286904D01*
X92457142Y-71442857D02*
X92504761Y-71490476D01*
X92552380Y-71633333D01*
X92552380Y-71728571D01*
X92504761Y-71871428D01*
X92409523Y-71966666D01*
X92314285Y-72014285D01*
X92123809Y-72061904D01*
X91980952Y-72061904D01*
X91790476Y-72014285D01*
X91695238Y-71966666D01*
X91600000Y-71871428D01*
X91552380Y-71728571D01*
X91552380Y-71633333D01*
X91600000Y-71490476D01*
X91647619Y-71442857D01*
X92552380Y-70490476D02*
X92552380Y-71061904D01*
X92552380Y-70776190D02*
X91552380Y-70776190D01*
X91695238Y-70871428D01*
X91790476Y-70966666D01*
X91838095Y-71061904D01*
X91647619Y-70109523D02*
X91600000Y-70061904D01*
X91552380Y-69966666D01*
X91552380Y-69728571D01*
X91600000Y-69633333D01*
X91647619Y-69585714D01*
X91742857Y-69538095D01*
X91838095Y-69538095D01*
X91980952Y-69585714D01*
X92552380Y-70157142D01*
X92552380Y-69538095D01*
X87790476Y-63092380D02*
X87790476Y-63806666D01*
X87742857Y-63949523D01*
X87647619Y-64044761D01*
X87504761Y-64092380D01*
X87409523Y-64092380D01*
X88790476Y-64092380D02*
X88219047Y-64092380D01*
X88504761Y-64092380D02*
X88504761Y-63092380D01*
X88409523Y-63235238D01*
X88314285Y-63330476D01*
X88219047Y-63378095D01*
X89123809Y-63092380D02*
X89742857Y-63092380D01*
X89409523Y-63473333D01*
X89552380Y-63473333D01*
X89647619Y-63520952D01*
X89695238Y-63568571D01*
X89742857Y-63663809D01*
X89742857Y-63901904D01*
X89695238Y-63997142D01*
X89647619Y-64044761D01*
X89552380Y-64092380D01*
X89266666Y-64092380D01*
X89171428Y-64044761D01*
X89123809Y-63997142D01*
X96233334Y-85677380D02*
X95900001Y-85201190D01*
X95661905Y-85677380D02*
X95661905Y-84677380D01*
X96042858Y-84677380D01*
X96138096Y-84725000D01*
X96185715Y-84772619D01*
X96233334Y-84867857D01*
X96233334Y-85010714D01*
X96185715Y-85105952D01*
X96138096Y-85153571D01*
X96042858Y-85201190D01*
X95661905Y-85201190D01*
X97185715Y-85677380D02*
X96614286Y-85677380D01*
X96900001Y-85677380D02*
X96900001Y-84677380D01*
X96804762Y-84820238D01*
X96709524Y-84915476D01*
X96614286Y-84963095D01*
X104458333Y-79382142D02*
X104410714Y-79429761D01*
X104267857Y-79477380D01*
X104172619Y-79477380D01*
X104029761Y-79429761D01*
X103934523Y-79334523D01*
X103886904Y-79239285D01*
X103839285Y-79048809D01*
X103839285Y-78905952D01*
X103886904Y-78715476D01*
X103934523Y-78620238D01*
X104029761Y-78525000D01*
X104172619Y-78477380D01*
X104267857Y-78477380D01*
X104410714Y-78525000D01*
X104458333Y-78572619D01*
X105363095Y-78477380D02*
X104886904Y-78477380D01*
X104839285Y-78953571D01*
X104886904Y-78905952D01*
X104982142Y-78858333D01*
X105220238Y-78858333D01*
X105315476Y-78905952D01*
X105363095Y-78953571D01*
X105410714Y-79048809D01*
X105410714Y-79286904D01*
X105363095Y-79382142D01*
X105315476Y-79429761D01*
X105220238Y-79477380D01*
X104982142Y-79477380D01*
X104886904Y-79429761D01*
X104839285Y-79382142D01*
X88832142Y-81666666D02*
X88879761Y-81714285D01*
X88927380Y-81857142D01*
X88927380Y-81952380D01*
X88879761Y-82095238D01*
X88784523Y-82190476D01*
X88689285Y-82238095D01*
X88498809Y-82285714D01*
X88355952Y-82285714D01*
X88165476Y-82238095D01*
X88070238Y-82190476D01*
X87975000Y-82095238D01*
X87927380Y-81952380D01*
X87927380Y-81857142D01*
X87975000Y-81714285D01*
X88022619Y-81666666D01*
X88927380Y-80714285D02*
X88927380Y-81285714D01*
X88927380Y-81000000D02*
X87927380Y-81000000D01*
X88070238Y-81095238D01*
X88165476Y-81190476D01*
X88213095Y-81285714D01*
X106207142Y-81091666D02*
X106254761Y-81139285D01*
X106302380Y-81282142D01*
X106302380Y-81377380D01*
X106254761Y-81520238D01*
X106159523Y-81615476D01*
X106064285Y-81663095D01*
X105873809Y-81710714D01*
X105730952Y-81710714D01*
X105540476Y-81663095D01*
X105445238Y-81615476D01*
X105350000Y-81520238D01*
X105302380Y-81377380D01*
X105302380Y-81282142D01*
X105350000Y-81139285D01*
X105397619Y-81091666D01*
X105302380Y-80758333D02*
X105302380Y-80139285D01*
X105683333Y-80472619D01*
X105683333Y-80329761D01*
X105730952Y-80234523D01*
X105778571Y-80186904D01*
X105873809Y-80139285D01*
X106111904Y-80139285D01*
X106207142Y-80186904D01*
X106254761Y-80234523D01*
X106302380Y-80329761D01*
X106302380Y-80615476D01*
X106254761Y-80710714D01*
X106207142Y-80758333D01*
X98382141Y-69392856D02*
X98429760Y-69440475D01*
X98477379Y-69583332D01*
X98477379Y-69678570D01*
X98429760Y-69821427D01*
X98334522Y-69916665D01*
X98239284Y-69964284D01*
X98048808Y-70011903D01*
X97905951Y-70011903D01*
X97715475Y-69964284D01*
X97620237Y-69916665D01*
X97524999Y-69821427D01*
X97477379Y-69678570D01*
X97477379Y-69583332D01*
X97524999Y-69440475D01*
X97572618Y-69392856D01*
X98477379Y-68440475D02*
X98477379Y-69011903D01*
X98477379Y-68726189D02*
X97477379Y-68726189D01*
X97620237Y-68821427D01*
X97715475Y-68916665D01*
X97763094Y-69011903D01*
X97810713Y-67583332D02*
X98477379Y-67583332D01*
X97429760Y-67821427D02*
X98144046Y-68059522D01*
X98144046Y-67440475D01*
X92833350Y-66299622D02*
X92357160Y-66632955D01*
X92833350Y-66871050D02*
X91833350Y-66871050D01*
X91833350Y-66490098D01*
X91880970Y-66394860D01*
X91928589Y-66347241D01*
X92023827Y-66299622D01*
X92166684Y-66299622D01*
X92261922Y-66347241D01*
X92309541Y-66394860D01*
X92357160Y-66490098D01*
X92357160Y-66871050D01*
X92833350Y-65347241D02*
X92833350Y-65918669D01*
X92833350Y-65632955D02*
X91833350Y-65632955D01*
X91976208Y-65728193D01*
X92071446Y-65823431D01*
X92119065Y-65918669D01*
X91833350Y-64728193D02*
X91833350Y-64632955D01*
X91880970Y-64537717D01*
X91928589Y-64490098D01*
X92023827Y-64442479D01*
X92214303Y-64394860D01*
X92452398Y-64394860D01*
X92642874Y-64442479D01*
X92738112Y-64490098D01*
X92785731Y-64537717D01*
X92833350Y-64632955D01*
X92833350Y-64728193D01*
X92785731Y-64823431D01*
X92738112Y-64871050D01*
X92642874Y-64918669D01*
X92452398Y-64966288D01*
X92214303Y-64966288D01*
X92023827Y-64918669D01*
X91928589Y-64871050D01*
X91880970Y-64823431D01*
X91833350Y-64728193D01*
X83440476Y-63092380D02*
X83440476Y-63806666D01*
X83392857Y-63949523D01*
X83297619Y-64044761D01*
X83154761Y-64092380D01*
X83059523Y-64092380D01*
X84440476Y-64092380D02*
X83869047Y-64092380D01*
X84154761Y-64092380D02*
X84154761Y-63092380D01*
X84059523Y-63235238D01*
X83964285Y-63330476D01*
X83869047Y-63378095D01*
X84821428Y-63187619D02*
X84869047Y-63140000D01*
X84964285Y-63092380D01*
X85202380Y-63092380D01*
X85297619Y-63140000D01*
X85345238Y-63187619D01*
X85392857Y-63282857D01*
X85392857Y-63378095D01*
X85345238Y-63520952D01*
X84773809Y-64092380D01*
X85392857Y-64092380D01*
X99257142Y-59677380D02*
X98923809Y-59201190D01*
X98685714Y-59677380D02*
X98685714Y-58677380D01*
X99066666Y-58677380D01*
X99161904Y-58725000D01*
X99209523Y-58772619D01*
X99257142Y-58867857D01*
X99257142Y-59010714D01*
X99209523Y-59105952D01*
X99161904Y-59153571D01*
X99066666Y-59201190D01*
X98685714Y-59201190D01*
X100209523Y-59677380D02*
X99638095Y-59677380D01*
X99923809Y-59677380D02*
X99923809Y-58677380D01*
X99828571Y-58820238D01*
X99733333Y-58915476D01*
X99638095Y-58963095D01*
X100685714Y-59677380D02*
X100876190Y-59677380D01*
X100971428Y-59629761D01*
X101019047Y-59582142D01*
X101114285Y-59439285D01*
X101161904Y-59248809D01*
X101161904Y-58867857D01*
X101114285Y-58772619D01*
X101066666Y-58725000D01*
X100971428Y-58677380D01*
X100780952Y-58677380D01*
X100685714Y-58725000D01*
X100638095Y-58772619D01*
X100590476Y-58867857D01*
X100590476Y-59105952D01*
X100638095Y-59201190D01*
X100685714Y-59248809D01*
X100780952Y-59296428D01*
X100971428Y-59296428D01*
X101066666Y-59248809D01*
X101114285Y-59201190D01*
X101161904Y-59105952D01*
X97432142Y-47502380D02*
X97098809Y-47026190D01*
X96860714Y-47502380D02*
X96860714Y-46502380D01*
X97241666Y-46502380D01*
X97336904Y-46550000D01*
X97384523Y-46597619D01*
X97432142Y-46692857D01*
X97432142Y-46835714D01*
X97384523Y-46930952D01*
X97336904Y-46978571D01*
X97241666Y-47026190D01*
X96860714Y-47026190D01*
X98384523Y-47502380D02*
X97813095Y-47502380D01*
X98098809Y-47502380D02*
X98098809Y-46502380D01*
X98003571Y-46645238D01*
X97908333Y-46740476D01*
X97813095Y-46788095D01*
X99241666Y-46502380D02*
X99051190Y-46502380D01*
X98955952Y-46550000D01*
X98908333Y-46597619D01*
X98813095Y-46740476D01*
X98765476Y-46930952D01*
X98765476Y-47311904D01*
X98813095Y-47407142D01*
X98860714Y-47454761D01*
X98955952Y-47502380D01*
X99146428Y-47502380D01*
X99241666Y-47454761D01*
X99289285Y-47407142D01*
X99336904Y-47311904D01*
X99336904Y-47073809D01*
X99289285Y-46978571D01*
X99241666Y-46930952D01*
X99146428Y-46883333D01*
X98955952Y-46883333D01*
X98860714Y-46930952D01*
X98813095Y-46978571D01*
X98765476Y-47073809D01*
X95932142Y-66642857D02*
X95979761Y-66690476D01*
X96027380Y-66833333D01*
X96027380Y-66928571D01*
X95979761Y-67071428D01*
X95884523Y-67166666D01*
X95789285Y-67214285D01*
X95598809Y-67261904D01*
X95455952Y-67261904D01*
X95265476Y-67214285D01*
X95170238Y-67166666D01*
X95075000Y-67071428D01*
X95027380Y-66928571D01*
X95027380Y-66833333D01*
X95075000Y-66690476D01*
X95122619Y-66642857D01*
X96027380Y-65690476D02*
X96027380Y-66261904D01*
X96027380Y-65976190D02*
X95027380Y-65976190D01*
X95170238Y-66071428D01*
X95265476Y-66166666D01*
X95313095Y-66261904D01*
X95027380Y-65357142D02*
X95027380Y-64690476D01*
X96027380Y-65119047D01*
X85882142Y-47277380D02*
X85548809Y-46801190D01*
X85310714Y-47277380D02*
X85310714Y-46277380D01*
X85691666Y-46277380D01*
X85786904Y-46325000D01*
X85834523Y-46372619D01*
X85882142Y-46467857D01*
X85882142Y-46610714D01*
X85834523Y-46705952D01*
X85786904Y-46753571D01*
X85691666Y-46801190D01*
X85310714Y-46801190D01*
X86834523Y-47277380D02*
X86263095Y-47277380D01*
X86548809Y-47277380D02*
X86548809Y-46277380D01*
X86453571Y-46420238D01*
X86358333Y-46515476D01*
X86263095Y-46563095D01*
X87739285Y-46277380D02*
X87263095Y-46277380D01*
X87215476Y-46753571D01*
X87263095Y-46705952D01*
X87358333Y-46658333D01*
X87596428Y-46658333D01*
X87691666Y-46705952D01*
X87739285Y-46753571D01*
X87786904Y-46848809D01*
X87786904Y-47086904D01*
X87739285Y-47182142D01*
X87691666Y-47229761D01*
X87596428Y-47277380D01*
X87358333Y-47277380D01*
X87263095Y-47229761D01*
X87215476Y-47182142D01*
X90207142Y-82417857D02*
X90254761Y-82465476D01*
X90302380Y-82608333D01*
X90302380Y-82703571D01*
X90254761Y-82846428D01*
X90159523Y-82941666D01*
X90064285Y-82989285D01*
X89873809Y-83036904D01*
X89730952Y-83036904D01*
X89540476Y-82989285D01*
X89445238Y-82941666D01*
X89350000Y-82846428D01*
X89302380Y-82703571D01*
X89302380Y-82608333D01*
X89350000Y-82465476D01*
X89397619Y-82417857D01*
X90302380Y-81465476D02*
X90302380Y-82036904D01*
X90302380Y-81751190D02*
X89302380Y-81751190D01*
X89445238Y-81846428D01*
X89540476Y-81941666D01*
X89588095Y-82036904D01*
X89302380Y-80846428D02*
X89302380Y-80751190D01*
X89350000Y-80655952D01*
X89397619Y-80608333D01*
X89492857Y-80560714D01*
X89683333Y-80513095D01*
X89921428Y-80513095D01*
X90111904Y-80560714D01*
X90207142Y-80608333D01*
X90254761Y-80655952D01*
X90302380Y-80751190D01*
X90302380Y-80846428D01*
X90254761Y-80941666D01*
X90207142Y-80989285D01*
X90111904Y-81036904D01*
X89921428Y-81084523D01*
X89683333Y-81084523D01*
X89492857Y-81036904D01*
X89397619Y-80989285D01*
X89350000Y-80941666D01*
X89302380Y-80846428D01*
X84302380Y-86542857D02*
X83826190Y-86876190D01*
X84302380Y-87114285D02*
X83302380Y-87114285D01*
X83302380Y-86733333D01*
X83350000Y-86638095D01*
X83397619Y-86590476D01*
X83492857Y-86542857D01*
X83635714Y-86542857D01*
X83730952Y-86590476D01*
X83778571Y-86638095D01*
X83826190Y-86733333D01*
X83826190Y-87114285D01*
X84302380Y-85590476D02*
X84302380Y-86161904D01*
X84302380Y-85876190D02*
X83302380Y-85876190D01*
X83445238Y-85971428D01*
X83540476Y-86066666D01*
X83588095Y-86161904D01*
X84302380Y-84638095D02*
X84302380Y-85209523D01*
X84302380Y-84923809D02*
X83302380Y-84923809D01*
X83445238Y-85019047D01*
X83540476Y-85114285D01*
X83588095Y-85209523D01*
X94527380Y-44336904D02*
X95336904Y-44336904D01*
X95432142Y-44289285D01*
X95479761Y-44241666D01*
X95527380Y-44146428D01*
X95527380Y-43955952D01*
X95479761Y-43860714D01*
X95432142Y-43813095D01*
X95336904Y-43765476D01*
X94527380Y-43765476D01*
X94955952Y-43146428D02*
X94908333Y-43241666D01*
X94860714Y-43289285D01*
X94765476Y-43336904D01*
X94717857Y-43336904D01*
X94622619Y-43289285D01*
X94575000Y-43241666D01*
X94527380Y-43146428D01*
X94527380Y-42955952D01*
X94575000Y-42860714D01*
X94622619Y-42813095D01*
X94717857Y-42765476D01*
X94765476Y-42765476D01*
X94860714Y-42813095D01*
X94908333Y-42860714D01*
X94955952Y-42955952D01*
X94955952Y-43146428D01*
X95003571Y-43241666D01*
X95051190Y-43289285D01*
X95146428Y-43336904D01*
X95336904Y-43336904D01*
X95432142Y-43289285D01*
X95479761Y-43241666D01*
X95527380Y-43146428D01*
X95527380Y-42955952D01*
X95479761Y-42860714D01*
X95432142Y-42813095D01*
X95336904Y-42765476D01*
X95146428Y-42765476D01*
X95051190Y-42813095D01*
X95003571Y-42860714D01*
X94955952Y-42955952D01*
X91741666Y-56827380D02*
X91741666Y-57541666D01*
X91694047Y-57684523D01*
X91598809Y-57779761D01*
X91455952Y-57827380D01*
X91360714Y-57827380D01*
X92170238Y-56922619D02*
X92217857Y-56875000D01*
X92313095Y-56827380D01*
X92551190Y-56827380D01*
X92646428Y-56875000D01*
X92694047Y-56922619D01*
X92741666Y-57017857D01*
X92741666Y-57113095D01*
X92694047Y-57255952D01*
X92122619Y-57827380D01*
X92741666Y-57827380D01*
X97407142Y-46027380D02*
X97073809Y-45551190D01*
X96835714Y-46027380D02*
X96835714Y-45027380D01*
X97216666Y-45027380D01*
X97311904Y-45075000D01*
X97359523Y-45122619D01*
X97407142Y-45217857D01*
X97407142Y-45360714D01*
X97359523Y-45455952D01*
X97311904Y-45503571D01*
X97216666Y-45551190D01*
X96835714Y-45551190D01*
X98359523Y-46027380D02*
X97788095Y-46027380D01*
X98073809Y-46027380D02*
X98073809Y-45027380D01*
X97978571Y-45170238D01*
X97883333Y-45265476D01*
X97788095Y-45313095D01*
X99216666Y-45360714D02*
X99216666Y-46027380D01*
X98978571Y-44979761D02*
X98740476Y-45694047D01*
X99359523Y-45694047D01*
X77601345Y-86733963D02*
X78316981Y-86733963D01*
X78460108Y-86781672D01*
X78555526Y-86877090D01*
X78603235Y-87020217D01*
X78603235Y-87115635D01*
X78603235Y-85732073D02*
X78603235Y-86304581D01*
X78603235Y-86018327D02*
X77601345Y-86018327D01*
X77744473Y-86113745D01*
X77839891Y-86209163D01*
X77887600Y-86304581D01*
X81687278Y-85546192D02*
X81687278Y-86003807D01*
X81687278Y-85775000D02*
X80886451Y-85775000D01*
X81000855Y-85851269D01*
X81077124Y-85927538D01*
X81115259Y-86003807D01*
X104032142Y-68757141D02*
X103984523Y-68804760D01*
X103841666Y-68852379D01*
X103746428Y-68852379D01*
X103603571Y-68804760D01*
X103508333Y-68709522D01*
X103460714Y-68614284D01*
X103413095Y-68423808D01*
X103413095Y-68280951D01*
X103460714Y-68090475D01*
X103508333Y-67995237D01*
X103603571Y-67899999D01*
X103746428Y-67852379D01*
X103841666Y-67852379D01*
X103984523Y-67899999D01*
X104032142Y-67947618D01*
X104984523Y-68852379D02*
X104413095Y-68852379D01*
X104698809Y-68852379D02*
X104698809Y-67852379D01*
X104603571Y-67995237D01*
X104508333Y-68090475D01*
X104413095Y-68138094D01*
X105889285Y-67852379D02*
X105413095Y-67852379D01*
X105365476Y-68328570D01*
X105413095Y-68280951D01*
X105508333Y-68233332D01*
X105746428Y-68233332D01*
X105841666Y-68280951D01*
X105889285Y-68328570D01*
X105936904Y-68423808D01*
X105936904Y-68661903D01*
X105889285Y-68757141D01*
X105841666Y-68804760D01*
X105746428Y-68852379D01*
X105508333Y-68852379D01*
X105413095Y-68804760D01*
X105365476Y-68757141D01*
X102932142Y-37957142D02*
X102884523Y-38004761D01*
X102741666Y-38052380D01*
X102646428Y-38052380D01*
X102503571Y-38004761D01*
X102408333Y-37909523D01*
X102360714Y-37814285D01*
X102313095Y-37623809D01*
X102313095Y-37480952D01*
X102360714Y-37290476D01*
X102408333Y-37195238D01*
X102503571Y-37100000D01*
X102646428Y-37052380D01*
X102741666Y-37052380D01*
X102884523Y-37100000D01*
X102932142Y-37147619D01*
X103884523Y-38052380D02*
X103313095Y-38052380D01*
X103598809Y-38052380D02*
X103598809Y-37052380D01*
X103503571Y-37195238D01*
X103408333Y-37290476D01*
X103313095Y-37338095D01*
X104360714Y-38052380D02*
X104551190Y-38052380D01*
X104646428Y-38004761D01*
X104694047Y-37957142D01*
X104789285Y-37814285D01*
X104836904Y-37623809D01*
X104836904Y-37242857D01*
X104789285Y-37147619D01*
X104741666Y-37100000D01*
X104646428Y-37052380D01*
X104455952Y-37052380D01*
X104360714Y-37100000D01*
X104313095Y-37147619D01*
X104265476Y-37242857D01*
X104265476Y-37480952D01*
X104313095Y-37576190D01*
X104360714Y-37623809D01*
X104455952Y-37671428D01*
X104646428Y-37671428D01*
X104741666Y-37623809D01*
X104789285Y-37576190D01*
X104836904Y-37480952D01*
X88016666Y-56827380D02*
X88016666Y-57541666D01*
X87969047Y-57684523D01*
X87873809Y-57779761D01*
X87730952Y-57827380D01*
X87635714Y-57827380D01*
X88921428Y-56827380D02*
X88730952Y-56827380D01*
X88635714Y-56875000D01*
X88588095Y-56922619D01*
X88492857Y-57065476D01*
X88445238Y-57255952D01*
X88445238Y-57636904D01*
X88492857Y-57732142D01*
X88540476Y-57779761D01*
X88635714Y-57827380D01*
X88826190Y-57827380D01*
X88921428Y-57779761D01*
X88969047Y-57732142D01*
X89016666Y-57636904D01*
X89016666Y-57398809D01*
X88969047Y-57303571D01*
X88921428Y-57255952D01*
X88826190Y-57208333D01*
X88635714Y-57208333D01*
X88540476Y-57255952D01*
X88492857Y-57303571D01*
X88445238Y-57398809D01*
X99252793Y-62619794D02*
X99205174Y-62667413D01*
X99062317Y-62715032D01*
X98967079Y-62715032D01*
X98824221Y-62667413D01*
X98728983Y-62572175D01*
X98681364Y-62476937D01*
X98633745Y-62286461D01*
X98633745Y-62143604D01*
X98681364Y-61953128D01*
X98728983Y-61857890D01*
X98824221Y-61762652D01*
X98967079Y-61715032D01*
X99062317Y-61715032D01*
X99205174Y-61762652D01*
X99252793Y-61810271D01*
X99824221Y-62143604D02*
X99728983Y-62095985D01*
X99681364Y-62048366D01*
X99633745Y-61953128D01*
X99633745Y-61905509D01*
X99681364Y-61810271D01*
X99728983Y-61762652D01*
X99824221Y-61715032D01*
X100014698Y-61715032D01*
X100109936Y-61762652D01*
X100157555Y-61810271D01*
X100205174Y-61905509D01*
X100205174Y-61953128D01*
X100157555Y-62048366D01*
X100109936Y-62095985D01*
X100014698Y-62143604D01*
X99824221Y-62143604D01*
X99728983Y-62191223D01*
X99681364Y-62238842D01*
X99633745Y-62334080D01*
X99633745Y-62524556D01*
X99681364Y-62619794D01*
X99728983Y-62667413D01*
X99824221Y-62715032D01*
X100014698Y-62715032D01*
X100109936Y-62667413D01*
X100157555Y-62619794D01*
X100205174Y-62524556D01*
X100205174Y-62334080D01*
X100157555Y-62238842D01*
X100109936Y-62191223D01*
X100014698Y-62143604D01*
X91366666Y-86302380D02*
X91366666Y-87016666D01*
X91319047Y-87159523D01*
X91223809Y-87254761D01*
X91080952Y-87302380D01*
X90985714Y-87302380D01*
X92319047Y-86302380D02*
X91842857Y-86302380D01*
X91795238Y-86778571D01*
X91842857Y-86730952D01*
X91938095Y-86683333D01*
X92176190Y-86683333D01*
X92271428Y-86730952D01*
X92319047Y-86778571D01*
X92366666Y-86873809D01*
X92366666Y-87111904D01*
X92319047Y-87207142D01*
X92271428Y-87254761D01*
X92176190Y-87302380D01*
X91938095Y-87302380D01*
X91842857Y-87254761D01*
X91795238Y-87207142D01*
X82827380Y-78224404D02*
X83636904Y-78224404D01*
X83732142Y-78176785D01*
X83779761Y-78129166D01*
X83827380Y-78033928D01*
X83827380Y-77843452D01*
X83779761Y-77748214D01*
X83732142Y-77700595D01*
X83636904Y-77652976D01*
X82827380Y-77652976D01*
X83827380Y-76652976D02*
X83827380Y-77224404D01*
X83827380Y-76938690D02*
X82827380Y-76938690D01*
X82970238Y-77033928D01*
X83065476Y-77129166D01*
X83113095Y-77224404D01*
X99191666Y-56827380D02*
X99191666Y-57541666D01*
X99144047Y-57684523D01*
X99048809Y-57779761D01*
X98905952Y-57827380D01*
X98810714Y-57827380D01*
X99572619Y-56827380D02*
X100239285Y-56827380D01*
X99810714Y-57827380D01*
X105033333Y-61077380D02*
X104700000Y-60601190D01*
X104461904Y-61077380D02*
X104461904Y-60077380D01*
X104842857Y-60077380D01*
X104938095Y-60125000D01*
X104985714Y-60172619D01*
X105033333Y-60267857D01*
X105033333Y-60410714D01*
X104985714Y-60505952D01*
X104938095Y-60553571D01*
X104842857Y-60601190D01*
X104461904Y-60601190D01*
X105890476Y-60410714D02*
X105890476Y-61077380D01*
X105652380Y-60029761D02*
X105414285Y-60744047D01*
X106033333Y-60744047D01*
X84291666Y-56827380D02*
X84291666Y-57541666D01*
X84244047Y-57684523D01*
X84148809Y-57779761D01*
X84005952Y-57827380D01*
X83910714Y-57827380D01*
X84910714Y-57255952D02*
X84815476Y-57208333D01*
X84767857Y-57160714D01*
X84720238Y-57065476D01*
X84720238Y-57017857D01*
X84767857Y-56922619D01*
X84815476Y-56875000D01*
X84910714Y-56827380D01*
X85101190Y-56827380D01*
X85196428Y-56875000D01*
X85244047Y-56922619D01*
X85291666Y-57017857D01*
X85291666Y-57065476D01*
X85244047Y-57160714D01*
X85196428Y-57208333D01*
X85101190Y-57255952D01*
X84910714Y-57255952D01*
X84815476Y-57303571D01*
X84767857Y-57351190D01*
X84720238Y-57446428D01*
X84720238Y-57636904D01*
X84767857Y-57732142D01*
X84815476Y-57779761D01*
X84910714Y-57827380D01*
X85101190Y-57827380D01*
X85196428Y-57779761D01*
X85244047Y-57732142D01*
X85291666Y-57636904D01*
X85291666Y-57446428D01*
X85244047Y-57351190D01*
X85196428Y-57303571D01*
X85101190Y-57255952D01*
X91182140Y-71442857D02*
X91229759Y-71490476D01*
X91277378Y-71633333D01*
X91277378Y-71728571D01*
X91229759Y-71871428D01*
X91134521Y-71966666D01*
X91039283Y-72014285D01*
X90848807Y-72061904D01*
X90705950Y-72061904D01*
X90515474Y-72014285D01*
X90420236Y-71966666D01*
X90324998Y-71871428D01*
X90277378Y-71728571D01*
X90277378Y-71633333D01*
X90324998Y-71490476D01*
X90372617Y-71442857D01*
X91277378Y-70490476D02*
X91277378Y-71061904D01*
X91277378Y-70776190D02*
X90277378Y-70776190D01*
X90420236Y-70871428D01*
X90515474Y-70966666D01*
X90563093Y-71061904D01*
X90277378Y-70157142D02*
X90277378Y-69538095D01*
X90658331Y-69871428D01*
X90658331Y-69728571D01*
X90705950Y-69633333D01*
X90753569Y-69585714D01*
X90848807Y-69538095D01*
X91086902Y-69538095D01*
X91182140Y-69585714D01*
X91229759Y-69633333D01*
X91277378Y-69728571D01*
X91277378Y-70014285D01*
X91229759Y-70109523D01*
X91182140Y-70157142D01*
X105033333Y-59577380D02*
X104700000Y-59101190D01*
X104461904Y-59577380D02*
X104461904Y-58577380D01*
X104842857Y-58577380D01*
X104938095Y-58625000D01*
X104985714Y-58672619D01*
X105033333Y-58767857D01*
X105033333Y-58910714D01*
X104985714Y-59005952D01*
X104938095Y-59053571D01*
X104842857Y-59101190D01*
X104461904Y-59101190D01*
X105938095Y-58577380D02*
X105461904Y-58577380D01*
X105414285Y-59053571D01*
X105461904Y-59005952D01*
X105557142Y-58958333D01*
X105795238Y-58958333D01*
X105890476Y-59005952D01*
X105938095Y-59053571D01*
X105985714Y-59148809D01*
X105985714Y-59386904D01*
X105938095Y-59482142D01*
X105890476Y-59529761D01*
X105795238Y-59577380D01*
X105557142Y-59577380D01*
X105461904Y-59529761D01*
X105414285Y-59482142D01*
X95466666Y-56837380D02*
X95466666Y-57551666D01*
X95419047Y-57694523D01*
X95323809Y-57789761D01*
X95180952Y-57837380D01*
X95085714Y-57837380D01*
X95990476Y-57837380D02*
X96180952Y-57837380D01*
X96276190Y-57789761D01*
X96323809Y-57742142D01*
X96419047Y-57599285D01*
X96466666Y-57408809D01*
X96466666Y-57027857D01*
X96419047Y-56932619D01*
X96371428Y-56885000D01*
X96276190Y-56837380D01*
X96085714Y-56837380D01*
X95990476Y-56885000D01*
X95942857Y-56932619D01*
X95895238Y-57027857D01*
X95895238Y-57265952D01*
X95942857Y-57361190D01*
X95990476Y-57408809D01*
X96085714Y-57456428D01*
X96276190Y-57456428D01*
X96371428Y-57408809D01*
X96419047Y-57361190D01*
X96466666Y-57265952D01*
X96782142Y-64307142D02*
X96734523Y-64354761D01*
X96591666Y-64402380D01*
X96496428Y-64402380D01*
X96353571Y-64354761D01*
X96258333Y-64259523D01*
X96210714Y-64164285D01*
X96163095Y-63973809D01*
X96163095Y-63830952D01*
X96210714Y-63640476D01*
X96258333Y-63545238D01*
X96353571Y-63450000D01*
X96496428Y-63402380D01*
X96591666Y-63402380D01*
X96734523Y-63450000D01*
X96782142Y-63497619D01*
X97734523Y-64402380D02*
X97163095Y-64402380D01*
X97448809Y-64402380D02*
X97448809Y-63402380D01*
X97353571Y-63545238D01*
X97258333Y-63640476D01*
X97163095Y-63688095D01*
X98305952Y-63830952D02*
X98210714Y-63783333D01*
X98163095Y-63735714D01*
X98115476Y-63640476D01*
X98115476Y-63592857D01*
X98163095Y-63497619D01*
X98210714Y-63450000D01*
X98305952Y-63402380D01*
X98496428Y-63402380D01*
X98591666Y-63450000D01*
X98639285Y-63497619D01*
X98686904Y-63592857D01*
X98686904Y-63640476D01*
X98639285Y-63735714D01*
X98591666Y-63783333D01*
X98496428Y-63830952D01*
X98305952Y-63830952D01*
X98210714Y-63878571D01*
X98163095Y-63926190D01*
X98115476Y-64021428D01*
X98115476Y-64211904D01*
X98163095Y-64307142D01*
X98210714Y-64354761D01*
X98305952Y-64402380D01*
X98496428Y-64402380D01*
X98591666Y-64354761D01*
X98639285Y-64307142D01*
X98686904Y-64211904D01*
X98686904Y-64021428D01*
X98639285Y-63926190D01*
X98591666Y-63878571D01*
X98496428Y-63830952D01*
X86783333Y-81107142D02*
X86735714Y-81154761D01*
X86592857Y-81202380D01*
X86497619Y-81202380D01*
X86354761Y-81154761D01*
X86259523Y-81059523D01*
X86211904Y-80964285D01*
X86164285Y-80773809D01*
X86164285Y-80630952D01*
X86211904Y-80440476D01*
X86259523Y-80345238D01*
X86354761Y-80250000D01*
X86497619Y-80202380D01*
X86592857Y-80202380D01*
X86735714Y-80250000D01*
X86783333Y-80297619D01*
X87164285Y-80297619D02*
X87211904Y-80250000D01*
X87307142Y-80202380D01*
X87545238Y-80202380D01*
X87640476Y-80250000D01*
X87688095Y-80297619D01*
X87735714Y-80392857D01*
X87735714Y-80488095D01*
X87688095Y-80630952D01*
X87116666Y-81202380D01*
X87735714Y-81202380D01*
X105177380Y-78186904D02*
X105986904Y-78186904D01*
X106082142Y-78139285D01*
X106129761Y-78091666D01*
X106177380Y-77996428D01*
X106177380Y-77805952D01*
X106129761Y-77710714D01*
X106082142Y-77663095D01*
X105986904Y-77615476D01*
X105177380Y-77615476D01*
X105272619Y-77186904D02*
X105225000Y-77139285D01*
X105177380Y-77044047D01*
X105177380Y-76805952D01*
X105225000Y-76710714D01*
X105272619Y-76663095D01*
X105367857Y-76615476D01*
X105463095Y-76615476D01*
X105605952Y-76663095D01*
X106177380Y-77234523D01*
X106177380Y-76615476D01*
X81791666Y-32677380D02*
X81791666Y-33391666D01*
X81744047Y-33534523D01*
X81648809Y-33629761D01*
X81505952Y-33677380D01*
X81410714Y-33677380D01*
X82172619Y-32677380D02*
X82791666Y-32677380D01*
X82458333Y-33058333D01*
X82601190Y-33058333D01*
X82696428Y-33105952D01*
X82744047Y-33153571D01*
X82791666Y-33248809D01*
X82791666Y-33486904D01*
X82744047Y-33582142D01*
X82696428Y-33629761D01*
X82601190Y-33677380D01*
X82315476Y-33677380D01*
X82220238Y-33629761D01*
X82172619Y-33582142D01*
X91232142Y-37907142D02*
X91184523Y-37954761D01*
X91041666Y-38002380D01*
X90946428Y-38002380D01*
X90803571Y-37954761D01*
X90708333Y-37859523D01*
X90660714Y-37764285D01*
X90613095Y-37573809D01*
X90613095Y-37430952D01*
X90660714Y-37240476D01*
X90708333Y-37145238D01*
X90803571Y-37050000D01*
X90946428Y-37002380D01*
X91041666Y-37002380D01*
X91184523Y-37050000D01*
X91232142Y-37097619D01*
X91613095Y-37097619D02*
X91660714Y-37050000D01*
X91755952Y-37002380D01*
X91994047Y-37002380D01*
X92089285Y-37050000D01*
X92136904Y-37097619D01*
X92184523Y-37192857D01*
X92184523Y-37288095D01*
X92136904Y-37430952D01*
X91565476Y-38002380D01*
X92184523Y-38002380D01*
X92803571Y-37002380D02*
X92898809Y-37002380D01*
X92994047Y-37050000D01*
X93041666Y-37097619D01*
X93089285Y-37192857D01*
X93136904Y-37383333D01*
X93136904Y-37621428D01*
X93089285Y-37811904D01*
X93041666Y-37907142D01*
X92994047Y-37954761D01*
X92898809Y-38002380D01*
X92803571Y-38002380D01*
X92708333Y-37954761D01*
X92660714Y-37907142D01*
X92613095Y-37811904D01*
X92565476Y-37621428D01*
X92565476Y-37383333D01*
X92613095Y-37192857D01*
X92660714Y-37097619D01*
X92708333Y-37050000D01*
X92803571Y-37002380D01*
D11*
X104684420Y-64415000D02*
X104965580Y-64415000D01*
X104684420Y-65435000D02*
X104965580Y-65435000D01*
X100534420Y-63910000D02*
X100815580Y-63910000D01*
X100534420Y-62890000D02*
X100815580Y-62890000D01*
X97112064Y-61260000D02*
X96830904Y-61260000D01*
X97112064Y-60240000D02*
X96830904Y-60240000D01*
X102038749Y-84235001D02*
X103461253Y-84235001D01*
X102038749Y-82415001D02*
X103461253Y-82415001D01*
X101945000Y-56560000D02*
X104605000Y-56560000D01*
X101945000Y-51420000D02*
X104605000Y-51420000D01*
X101945000Y-48820000D02*
X103275000Y-48820000D01*
X101945000Y-51420000D02*
X101945000Y-56560000D01*
X104605000Y-51420000D02*
X104605000Y-56560000D01*
X101945000Y-50150000D02*
X101945000Y-48820000D01*
X89712258Y-44852500D02*
X89237742Y-44852500D01*
X89712258Y-45897500D02*
X89237742Y-45897500D01*
X89310000Y-40900000D02*
X89310000Y-42850000D01*
X84190000Y-40900000D02*
X84190000Y-44350000D01*
X84190000Y-40900000D02*
X84190000Y-38950000D01*
X89310000Y-40900000D02*
X89310000Y-38950000D01*
X85847500Y-82725242D02*
X85847500Y-83199758D01*
X84802500Y-82725242D02*
X84802500Y-83199758D01*
D12*
X91559409Y-60870000D02*
X91559409Y-60150000D01*
X94259409Y-63350000D02*
X94259409Y-62630000D01*
X91559409Y-63450000D02*
X91559409Y-62630000D01*
X94039409Y-60150000D02*
X94259409Y-60150000D01*
X91559409Y-60150000D02*
X91779409Y-60150000D01*
X94259409Y-63350000D02*
X94039409Y-63350000D01*
X94259409Y-60150000D02*
X94259409Y-60870000D01*
D11*
X98740001Y-74830000D02*
X98740001Y-73885000D01*
X98740001Y-73885000D02*
X93460001Y-73885000D01*
X98740001Y-79165000D02*
X93460001Y-79165000D01*
X98740001Y-78220000D02*
X98740001Y-79165000D01*
X93460001Y-73885000D02*
X93460001Y-74830000D01*
X93460001Y-79165000D02*
X93460001Y-78220000D01*
X88787742Y-76027500D02*
X89262258Y-76027500D01*
X88787742Y-77072500D02*
X89262258Y-77072500D01*
X100477500Y-71837258D02*
X100477500Y-71362742D01*
X101522500Y-71837258D02*
X101522500Y-71362742D01*
X93580000Y-33775000D02*
X93674000Y-33681000D01*
X92840000Y-35660000D02*
X92840000Y-27940000D01*
X99960000Y-35660000D02*
X92840000Y-35660000D01*
X93375000Y-33569000D02*
X93504000Y-33441000D01*
X95795000Y-31559000D02*
X95924000Y-31431000D01*
X95625000Y-31319000D02*
X95719000Y-31226000D01*
X99960000Y-35660000D02*
X99960000Y-27940000D01*
X99960000Y-29500000D02*
X92840000Y-29500000D01*
X100200000Y-27700000D02*
X99800000Y-27700000D01*
X99960000Y-28400000D02*
X92840000Y-28400000D01*
X100200000Y-28340000D02*
X100200000Y-27700000D01*
X99960000Y-27940000D02*
X92840000Y-27940000D01*
X99590001Y-33366000D02*
G75*
G03*
X99575358Y-31610106I-1439999J866000D01*
G01*
X99016000Y-31060000D02*
G75*
G03*
X98121326Y-30819901I-866003J-1440014D01*
G01*
X98150000Y-30820000D02*
G75*
G03*
X97259736Y-31075279I-3J-1679990D01*
G01*
X97284000Y-33940001D02*
G75*
G03*
X99039894Y-33925358I866000J1439999D01*
G01*
X96725000Y-31609000D02*
G75*
G03*
X96724496Y-33390193I1425003J-891000D01*
G01*
X96330000Y-32500000D02*
G75*
G03*
X96330000Y-32500000I-1680000J0D01*
G01*
X88787742Y-74502500D02*
X89262258Y-74502500D01*
X88787742Y-75547500D02*
X89262258Y-75547500D01*
X89487742Y-60127500D02*
X89962258Y-60127500D01*
X89487742Y-61172500D02*
X89962258Y-61172500D01*
X103390580Y-74410000D02*
X103109420Y-74410000D01*
X103390580Y-73390000D02*
X103109420Y-73390000D01*
X101250000Y-67435000D02*
X103050000Y-67435000D01*
X101250000Y-64315000D02*
X102050000Y-64315000D01*
X101250000Y-64315000D02*
X100450000Y-64315000D01*
X101250000Y-67435000D02*
X100450000Y-67435000D01*
X97035000Y-71486252D02*
X97035000Y-70063748D01*
X95215000Y-71486252D02*
X95215000Y-70063748D01*
X87790000Y-72760000D02*
X89910000Y-72760000D01*
X89910000Y-66700000D02*
X89910000Y-72760000D01*
X87790000Y-66700000D02*
X87790000Y-72760000D01*
X87790000Y-64640000D02*
X88850000Y-64640000D01*
X87790000Y-65700000D02*
X87790000Y-64640000D01*
X87790000Y-66700000D02*
X89910000Y-66700000D01*
X94222937Y-80815000D02*
X98577065Y-80815000D01*
X94222937Y-84235000D02*
X98577065Y-84235000D01*
X101959421Y-78515000D02*
X102240581Y-78515000D01*
X101959421Y-79535000D02*
X102240581Y-79535000D01*
X87765000Y-78965580D02*
X87765000Y-78684420D01*
X88785000Y-78965580D02*
X88785000Y-78684420D01*
X106022500Y-71837258D02*
X106022500Y-71362742D01*
X104977500Y-71837258D02*
X104977500Y-71362742D01*
X102038749Y-80015000D02*
X103461253Y-80015000D01*
X102038749Y-81835000D02*
X103461253Y-81835000D01*
X98535000Y-71740580D02*
X98535000Y-71459420D01*
X97515000Y-71740580D02*
X97515000Y-71459420D01*
X93288470Y-65894023D02*
X93288470Y-65419507D01*
X94333470Y-65894023D02*
X94333470Y-65419507D01*
X83440000Y-65700000D02*
X83440000Y-64640000D01*
X83440000Y-64640000D02*
X84500000Y-64640000D01*
X83440000Y-66700000D02*
X85560000Y-66700000D01*
X85560000Y-66700000D02*
X85560000Y-72760000D01*
X83440000Y-66700000D02*
X83440000Y-72760000D01*
X83440000Y-72760000D02*
X85560000Y-72760000D01*
X97212258Y-58702500D02*
X96737742Y-58702500D01*
X97212258Y-59747500D02*
X96737742Y-59747500D01*
X101262258Y-46527500D02*
X100787742Y-46527500D01*
X101262258Y-47572500D02*
X100787742Y-47572500D01*
X96340000Y-66215580D02*
X96340000Y-65934420D01*
X97360000Y-66215580D02*
X97360000Y-65934420D01*
X89712258Y-47397500D02*
X89237742Y-47397500D01*
X89712258Y-46352500D02*
X89237742Y-46352500D01*
X90285000Y-78965580D02*
X90285000Y-78684420D01*
X89265000Y-78965580D02*
X89265000Y-78684420D01*
X83302500Y-82725242D02*
X83302500Y-83199758D01*
X84347500Y-82725242D02*
X84347500Y-83199758D01*
X100835000Y-41075000D02*
X100835000Y-43025000D01*
X100835000Y-41075000D02*
X100835000Y-39125000D01*
X95715000Y-41075000D02*
X95715000Y-39125000D01*
X95715000Y-41075000D02*
X95715000Y-44525000D01*
X90770000Y-56585000D02*
X93430000Y-56585000D01*
X90770000Y-50175000D02*
X90770000Y-48845000D01*
X93430000Y-51445000D02*
X93430000Y-56585000D01*
X90770000Y-48845000D02*
X92100000Y-48845000D01*
X90770000Y-51445000D02*
X90770000Y-56585000D01*
X90770000Y-51445000D02*
X93430000Y-51445000D01*
X101262258Y-45027500D02*
X100787742Y-45027500D01*
X101262258Y-46072500D02*
X100787742Y-46072500D01*
X101965580Y-67840000D02*
X101684420Y-67840000D01*
X101965580Y-68860000D02*
X101684420Y-68860000D01*
X101952500Y-43237500D02*
X102327500Y-43237500D01*
X102140000Y-43425000D02*
X102140000Y-43050000D01*
X101815000Y-39290000D02*
X102515000Y-39290000D01*
X105335000Y-39290000D02*
X104635000Y-39290000D01*
X105335000Y-41920563D02*
X105335000Y-39290000D01*
X104635000Y-42620563D02*
X105335000Y-41920563D01*
X101815000Y-41920563D02*
X101815000Y-39290000D01*
X102515000Y-42620563D02*
X101815000Y-41920563D01*
X87045000Y-56585000D02*
X89705000Y-56585000D01*
X87045000Y-50175000D02*
X87045000Y-48845000D01*
X89705000Y-51445000D02*
X89705000Y-56585000D01*
X87045000Y-51445000D02*
X89705000Y-51445000D01*
X87045000Y-51445000D02*
X87045000Y-56585000D01*
X87045000Y-48845000D02*
X88375000Y-48845000D01*
X97110040Y-62772652D02*
X96828880Y-62772652D01*
X97110040Y-61752652D02*
X96828880Y-61752652D01*
X86450000Y-89950000D02*
X86450000Y-90650000D01*
X86050000Y-90300000D02*
X86850000Y-90300000D01*
X87335000Y-77462500D02*
X87335000Y-78262500D01*
X84215000Y-77462500D02*
X84215000Y-76662500D01*
X84215000Y-77462500D02*
X84215000Y-79262500D01*
X87335000Y-77462500D02*
X87335000Y-76662500D01*
X98220000Y-48820000D02*
X99550000Y-48820000D01*
X100880000Y-51420000D02*
X100880000Y-56560000D01*
X98220000Y-56560000D02*
X100880000Y-56560000D01*
X98220000Y-50150000D02*
X98220000Y-48820000D01*
X98220000Y-51420000D02*
X98220000Y-56560000D01*
X98220000Y-51420000D02*
X100880000Y-51420000D01*
X102587742Y-61197500D02*
X103062258Y-61197500D01*
X102587742Y-60152500D02*
X103062258Y-60152500D01*
X83320000Y-56585000D02*
X85980000Y-56585000D01*
X83320000Y-50175000D02*
X83320000Y-48845000D01*
X83320000Y-51445000D02*
X83320000Y-56585000D01*
X85980000Y-51445000D02*
X85980000Y-56585000D01*
X83320000Y-51445000D02*
X85980000Y-51445000D01*
X83320000Y-48845000D02*
X84650000Y-48845000D01*
X94709998Y-71486252D02*
X94709998Y-70063748D01*
X92889998Y-71486252D02*
X92889998Y-70063748D01*
X102587742Y-58627500D02*
X103062258Y-58627500D01*
X102587742Y-59672500D02*
X103062258Y-59672500D01*
X104510000Y-71740580D02*
X104510000Y-71459420D01*
X103490000Y-71740580D02*
X103490000Y-71459420D01*
X94495000Y-51430000D02*
X97155000Y-51430000D01*
X94495000Y-50160000D02*
X94495000Y-48830000D01*
X97155000Y-51430000D02*
X97155000Y-56570000D01*
X94495000Y-56570000D02*
X97155000Y-56570000D01*
X94495000Y-48830000D02*
X95825000Y-48830000D01*
X94495000Y-51430000D02*
X94495000Y-56570000D01*
X97840000Y-66215580D02*
X97840000Y-65934420D01*
X98860000Y-66215580D02*
X98860000Y-65934420D01*
X84715580Y-80202500D02*
X84434420Y-80202500D01*
X84715580Y-81222500D02*
X84434420Y-81222500D01*
X101977500Y-71837258D02*
X101977500Y-71362742D01*
X103022500Y-71837258D02*
X103022500Y-71362742D01*
X102690001Y-78085000D02*
X103490001Y-78085000D01*
X102690001Y-74965000D02*
X103490001Y-74965000D01*
X102690001Y-78085000D02*
X101890001Y-78085000D01*
X102690001Y-74965000D02*
X100890001Y-74965000D01*
X98977500Y-71837258D02*
X98977500Y-71362742D01*
X100022500Y-71837258D02*
X100022500Y-71362742D01*
X83875000Y-33579000D02*
X84004000Y-33451000D01*
X90460000Y-35670000D02*
X90460000Y-27950000D01*
X90700000Y-28350000D02*
X90700000Y-27710000D01*
X90460000Y-28410000D02*
X83340000Y-28410000D01*
X83340000Y-35670000D02*
X83340000Y-27950000D01*
X86125000Y-31329000D02*
X86219000Y-31236000D01*
X84080000Y-33785000D02*
X84174000Y-33691000D01*
X86295000Y-31569000D02*
X86424000Y-31441000D01*
X90460000Y-29510000D02*
X83340000Y-29510000D01*
X90700000Y-27710000D02*
X90300000Y-27710000D01*
X90460000Y-27950000D02*
X83340000Y-27950000D01*
X90460000Y-35670000D02*
X83340000Y-35670000D01*
X88650000Y-30830000D02*
G75*
G03*
X87759736Y-31085279I-3J-1679990D01*
G01*
X89516000Y-31070000D02*
G75*
G03*
X88621326Y-30829901I-866003J-1440014D01*
G01*
X87784000Y-33950001D02*
G75*
G03*
X89539894Y-33935358I866000J1439999D01*
G01*
X90090001Y-33376000D02*
G75*
G03*
X90075358Y-31620106I-1439999J866000D01*
G01*
X87225000Y-31619000D02*
G75*
G03*
X87224496Y-33400193I1425003J-891000D01*
G01*
X86830000Y-32510000D02*
G75*
G03*
X86830000Y-32510000I-1680000J0D01*
G01*
X90115000Y-39240000D02*
X90815000Y-39240000D01*
X90815000Y-42570563D02*
X90115000Y-41870563D01*
X92935000Y-42570563D02*
X93635000Y-41870563D01*
X90252500Y-43187500D02*
X90627500Y-43187500D01*
X90115000Y-41870563D02*
X90115000Y-39240000D01*
X90440000Y-43375000D02*
X90440000Y-43000000D01*
X93635000Y-41870563D02*
X93635000Y-39240000D01*
X93635000Y-39240000D02*
X92935000Y-39240000D01*
%LPC*%
D13*
X105600000Y-64925000D03*
X104050000Y-64925000D03*
X99900000Y-63400000D03*
X101450000Y-63400000D03*
D14*
X97746484Y-60750000D03*
X96196484Y-60750000D03*
D15*
X101275001Y-83325001D03*
X104225001Y-83325001D03*
D16*
X103275000Y-50150000D03*
D17*
X103275000Y-52690000D03*
X103275000Y-55230000D03*
D18*
X90300000Y-45375000D03*
X88650000Y-45375000D03*
D19*
X84845000Y-43375000D03*
X86115000Y-43375000D03*
X87385000Y-43375000D03*
X88655000Y-43375000D03*
X88655000Y-38425000D03*
X87385000Y-38425000D03*
X86115000Y-38425000D03*
X84845000Y-38425000D03*
D20*
X85950000Y-40300000D03*
X85950000Y-41500000D03*
D21*
X86750000Y-40900000D03*
D20*
X87550000Y-41500000D03*
X87550000Y-40300000D03*
D22*
X85325000Y-82137500D03*
X85325000Y-83787500D03*
D23*
X92159409Y-63012500D03*
X92659409Y-63012500D03*
X93159409Y-63012500D03*
X93659409Y-63012500D03*
D24*
X93921909Y-62250000D03*
X93921909Y-61750000D03*
X93921909Y-61250000D03*
D23*
X93659409Y-60487500D03*
X93159409Y-60487500D03*
X92659409Y-60487500D03*
X92159409Y-60487500D03*
D24*
X91896909Y-61250000D03*
X91896909Y-61750000D03*
X91896909Y-62250000D03*
D25*
X98526501Y-76525000D03*
X93673501Y-76525000D03*
D26*
X88200000Y-76550000D03*
X89850000Y-76550000D03*
D27*
X101000000Y-72425000D03*
X101000000Y-70775000D03*
D28*
X98150000Y-32500000D03*
D29*
X94650000Y-32500000D03*
D26*
X88200000Y-75025000D03*
X89850000Y-75025000D03*
X88900000Y-60650000D03*
X90550000Y-60650000D03*
D14*
X104025000Y-73900000D03*
X102475000Y-73900000D03*
D30*
X102387500Y-66825000D03*
X102387500Y-65875000D03*
X102387500Y-64925000D03*
X100112500Y-64925000D03*
X100112500Y-66825000D03*
D31*
X96125000Y-72250000D03*
X96125000Y-69300000D03*
D32*
X88850000Y-65700000D03*
D33*
X88850000Y-67700000D03*
X88850000Y-69700000D03*
X88850000Y-71700000D03*
D34*
X93437501Y-82525000D03*
X99362501Y-82525000D03*
D13*
X101325001Y-79025000D03*
X102875001Y-79025000D03*
D35*
X88275000Y-79600000D03*
X88275000Y-78050000D03*
D27*
X105500000Y-72425000D03*
X105500000Y-70775000D03*
D15*
X101275001Y-80925000D03*
X104225001Y-80925000D03*
D35*
X98025000Y-72375000D03*
X98025000Y-70825000D03*
D27*
X93810970Y-66481765D03*
X93810970Y-64831765D03*
D32*
X84500000Y-65700000D03*
D33*
X84500000Y-67700000D03*
X84500000Y-69700000D03*
X84500000Y-71700000D03*
D18*
X97800000Y-59225000D03*
X96150000Y-59225000D03*
X101850000Y-47050000D03*
X100200000Y-47050000D03*
D35*
X96850000Y-66850000D03*
X96850000Y-65300000D03*
D18*
X90300000Y-46875000D03*
X88650000Y-46875000D03*
D35*
X89775000Y-79600000D03*
X89775000Y-78050000D03*
D22*
X83825000Y-82137500D03*
X83825000Y-83787500D03*
D19*
X96370000Y-43550000D03*
X97640000Y-43550000D03*
X98910000Y-43550000D03*
X100180000Y-43550000D03*
X100180000Y-38600000D03*
X98910000Y-38600000D03*
X97640000Y-38600000D03*
X96370000Y-38600000D03*
D20*
X99075000Y-41675000D03*
X97475000Y-40475000D03*
X97475000Y-41675000D03*
X99075000Y-40475000D03*
D21*
X98275000Y-41075000D03*
D16*
X92100000Y-50175000D03*
D17*
X92100000Y-52715000D03*
X92100000Y-55255000D03*
D18*
X101850000Y-45550000D03*
X100200000Y-45550000D03*
D36*
X103110000Y-88990000D03*
X80110000Y-30990000D03*
X80110000Y-88990000D03*
X103110000Y-30990000D03*
D37*
X81380000Y-84120000D03*
D38*
X78840000Y-84120000D03*
X81380000Y-81580000D03*
X78840000Y-81580000D03*
X81380000Y-79040000D03*
X78840000Y-79040000D03*
X81380000Y-76500000D03*
X78840000Y-76500000D03*
X81380000Y-73960000D03*
X78840000Y-73960000D03*
X81380000Y-71420000D03*
X78840000Y-71420000D03*
X81380000Y-68880000D03*
X78840000Y-68880000D03*
X81380000Y-66340000D03*
X78840000Y-66340000D03*
X81380000Y-63800000D03*
X78840000Y-63800000D03*
X81380000Y-61260000D03*
X78840000Y-61260000D03*
X81380000Y-58720000D03*
X78840000Y-58720000D03*
X81380000Y-56180000D03*
X78840000Y-56180000D03*
X81380000Y-53640000D03*
X78840000Y-53640000D03*
X81380000Y-51100000D03*
X78840000Y-51100000D03*
X81380000Y-48560000D03*
X78840000Y-48560000D03*
X81380000Y-46020000D03*
X78840000Y-46020000D03*
X81380000Y-43480000D03*
X78840000Y-43480000D03*
X81380000Y-40940000D03*
X78840000Y-40940000D03*
X81380000Y-38400000D03*
X78840000Y-38400000D03*
X81380000Y-35860000D03*
X78840000Y-35860000D03*
D14*
X102600000Y-68350000D03*
X101050000Y-68350000D03*
D39*
X103575000Y-42550000D03*
X103575000Y-39550000D03*
D16*
X88375000Y-50175000D03*
D17*
X88375000Y-52715000D03*
X88375000Y-55255000D03*
D14*
X97744460Y-62262652D03*
X96194460Y-62262652D03*
D40*
X89350000Y-92450000D03*
X94350000Y-92450000D03*
D41*
X84800000Y-78600000D03*
X85450000Y-78600000D03*
X86100000Y-78600000D03*
X86750000Y-78600000D03*
X86750000Y-76325000D03*
X86100000Y-76325000D03*
X85450000Y-76325000D03*
X84800000Y-76325000D03*
D16*
X99550000Y-50150000D03*
D17*
X99550000Y-52690000D03*
X99550000Y-55230000D03*
D26*
X102000000Y-60675000D03*
X103650000Y-60675000D03*
D16*
X84650000Y-50175000D03*
D17*
X84650000Y-52715000D03*
X84650000Y-55255000D03*
D31*
X93799998Y-72250000D03*
X93799998Y-69300000D03*
D26*
X102000000Y-59150000D03*
X103650000Y-59150000D03*
D35*
X104000000Y-72375000D03*
X104000000Y-70825000D03*
D16*
X95825000Y-50160000D03*
D17*
X95825000Y-52700000D03*
X95825000Y-55240000D03*
D35*
X98350000Y-66850000D03*
X98350000Y-65300000D03*
D14*
X85350000Y-80712500D03*
X83800000Y-80712500D03*
D27*
X102500000Y-72425000D03*
X102500000Y-70775000D03*
D42*
X101552501Y-75575000D03*
X101552501Y-76525000D03*
X101552501Y-77475000D03*
X103827501Y-77475000D03*
X103827501Y-76525000D03*
X103827501Y-75575000D03*
D27*
X99500000Y-72425000D03*
X99500000Y-70775000D03*
D28*
X88650000Y-32510000D03*
D29*
X85150000Y-32510000D03*
D39*
X91875000Y-42500000D03*
X91875000Y-39500000D03*
M02*
