%TF.GenerationSoftware,KiCad,Pcbnew,6.0.7-f9a2dced07~116~ubuntu20.04.1*%
%TF.CreationDate,2022-09-21T16:42:24+02:00*%
%TF.ProjectId,pylot_shield,70796c6f-745f-4736-9869-656c642e6b69,rev?*%
%TF.SameCoordinates,Original*%
%TF.FileFunction,Soldermask,Bot*%
%TF.FilePolarity,Negative*%
%FSLAX46Y46*%
G04 Gerber Fmt 4.6, Leading zero omitted, Abs format (unit mm)*
G04 Created by KiCad (PCBNEW 6.0.7-f9a2dced07~116~ubuntu20.04.1) date 2022-09-21 16:42:24*
%MOMM*%
%LPD*%
G01*
G04 APERTURE LIST*
G04 Aperture macros list*
%AMFreePoly0*
4,1,22,0.550000,-0.750000,0.000000,-0.750000,0.000000,-0.745033,-0.079941,-0.743568,-0.215256,-0.701293,-0.333266,-0.622738,-0.424486,-0.514219,-0.481581,-0.384460,-0.499164,-0.250000,-0.500000,-0.250000,-0.500000,0.250000,-0.499164,0.250000,-0.499963,0.256109,-0.478152,0.396186,-0.417904,0.524511,-0.324060,0.630769,-0.204165,0.706417,-0.067858,0.745374,0.000000,0.744959,0.000000,0.750000,
0.550000,0.750000,0.550000,-0.750000,0.550000,-0.750000,$1*%
%AMFreePoly1*
4,1,20,0.000000,0.744959,0.073905,0.744508,0.209726,0.703889,0.328688,0.626782,0.421226,0.519385,0.479903,0.390333,0.500000,0.250000,0.500000,-0.250000,0.499851,-0.262216,0.476331,-0.402017,0.414519,-0.529596,0.319384,-0.634700,0.198574,-0.708877,0.061801,-0.746166,0.000000,-0.745033,0.000000,-0.750000,-0.550000,-0.750000,-0.550000,0.750000,0.000000,0.750000,0.000000,0.744959,
0.000000,0.744959,$1*%
G04 Aperture macros list end*
%ADD10R,1.700000X1.700000*%
%ADD11O,1.700000X1.700000*%
%ADD12C,0.800000*%
%ADD13R,2.400000X2.400000*%
%ADD14C,2.400000*%
%ADD15R,1.350000X1.350000*%
%ADD16O,1.350000X1.350000*%
%ADD17C,2.750000*%
%ADD18R,1.508000X1.508000*%
%ADD19C,1.508000*%
%ADD20O,4.000000X9.000000*%
%ADD21FreePoly0,0.000000*%
%ADD22R,1.000000X1.500000*%
%ADD23FreePoly1,0.000000*%
G04 APERTURE END LIST*
D10*
X103275000Y-50150000D03*
D11*
X103275000Y-52690000D03*
X103275000Y-55230000D03*
D12*
X85950000Y-40300000D03*
X85950000Y-41500000D03*
X87550000Y-41500000D03*
X87550000Y-40300000D03*
D13*
X98150000Y-32500000D03*
D14*
X94650000Y-32500000D03*
D15*
X88850000Y-65700000D03*
D16*
X88850000Y-67700000D03*
X88850000Y-69700000D03*
X88850000Y-71700000D03*
D15*
X84500000Y-65700000D03*
D16*
X84500000Y-67700000D03*
X84500000Y-69700000D03*
X84500000Y-71700000D03*
D12*
X99075000Y-41675000D03*
X97475000Y-40475000D03*
X97475000Y-41675000D03*
X99075000Y-40475000D03*
D10*
X92100000Y-50175000D03*
D11*
X92100000Y-52715000D03*
X92100000Y-55255000D03*
D17*
X103110000Y-88990000D03*
X80110000Y-30990000D03*
X80110000Y-88990000D03*
X103110000Y-30990000D03*
D18*
X81380000Y-84120000D03*
D19*
X78840000Y-84120000D03*
X81380000Y-81580000D03*
X78840000Y-81580000D03*
X81380000Y-79040000D03*
X78840000Y-79040000D03*
X81380000Y-76500000D03*
X78840000Y-76500000D03*
X81380000Y-73960000D03*
X78840000Y-73960000D03*
X81380000Y-71420000D03*
X78840000Y-71420000D03*
X81380000Y-68880000D03*
X78840000Y-68880000D03*
X81380000Y-66340000D03*
X78840000Y-66340000D03*
X81380000Y-63800000D03*
X78840000Y-63800000D03*
X81380000Y-61260000D03*
X78840000Y-61260000D03*
X81380000Y-58720000D03*
X78840000Y-58720000D03*
X81380000Y-56180000D03*
X78840000Y-56180000D03*
X81380000Y-53640000D03*
X78840000Y-53640000D03*
X81380000Y-51100000D03*
X78840000Y-51100000D03*
X81380000Y-48560000D03*
X78840000Y-48560000D03*
X81380000Y-46020000D03*
X78840000Y-46020000D03*
X81380000Y-43480000D03*
X78840000Y-43480000D03*
X81380000Y-40940000D03*
X78840000Y-40940000D03*
X81380000Y-38400000D03*
X78840000Y-38400000D03*
X81380000Y-35860000D03*
X78840000Y-35860000D03*
D10*
X88375000Y-50175000D03*
D11*
X88375000Y-52715000D03*
X88375000Y-55255000D03*
D20*
X89350000Y-92450000D03*
X94350000Y-92450000D03*
D10*
X99550000Y-50150000D03*
D11*
X99550000Y-52690000D03*
X99550000Y-55230000D03*
D10*
X84650000Y-50175000D03*
D11*
X84650000Y-52715000D03*
X84650000Y-55255000D03*
D10*
X95825000Y-50160000D03*
D11*
X95825000Y-52700000D03*
X95825000Y-55240000D03*
D13*
X88650000Y-32510000D03*
D14*
X85150000Y-32510000D03*
D21*
X100700000Y-58167500D03*
D22*
X102000000Y-58167500D03*
D23*
X103300000Y-58167500D03*
M02*
